<svg width="150px" height="46px" viewBox="0 0 150 46" version="1.1" xmlns="http://www.w3.org/2000/svg">
    <defs>
        <linearGradient x1="5.88427596%" y1="95.6504272%" x2="78.3534903%" y2="24.4130276%" id="linearGradient-1">
            <stop stop-color="#078181" offset="0%"></stop>
            <stop stop-color="#08C177" offset="100%"></stop>
        </linearGradient>
    </defs>
    <g id="Symbols" stroke="none" stroke-width="1" fill="none" fill-rule="evenodd">
        <g id="navigation/consumer-web/desktop-nav-new" transform="translate(-651.000000, -11.000000)">
            <g id="navigation/cw-desktop-alt">
                <g id="Group" transform="translate(135.000000, 11.000000)">
                    <g id="logos/lendingtree/lendingtree-gradient-reverse" transform="translate(516.000000, 0.000000)">
                        <path d="M149.476118,24.8815862 C149.39643,25.0224362 149.286815,25.1323854 149.145829,25.2114339 C149.004844,25.2908417 148.856286,25.330366 148.700877,25.330366 C148.545829,25.330366 148.397632,25.2908417 148.256286,25.2114339 C148.11494,25.1323854 148.004603,25.0224362 147.925637,24.8815862 C147.846671,24.7407362 147.807368,24.5926999 147.807368,24.4374775 C147.807368,24.2811771 147.847752,24.1317036 147.928882,23.9886977 C148.009651,23.8460511 148.119988,23.7361019 148.260613,23.6602872 C148.401238,23.5841132 148.547632,23.5460262 148.700877,23.5460262 C148.853401,23.5460262 149.000517,23.5841132 149.141142,23.6602872 C149.282127,23.7361019 149.393185,23.8460511 149.473954,23.9886977 C149.554724,24.1317036 149.595108,24.2811771 149.595108,24.4374775 C149.595108,24.5926999 149.555445,24.7407362 149.476118,24.8815862 M149.661454,23.8801857 C149.560853,23.7026859 149.423474,23.566507 149.247873,23.4712895 C149.072993,23.3764313 148.88982,23.3290022 148.699075,23.3290022 C148.508329,23.3290022 148.325517,23.3764313 148.150276,23.4712895 C147.975036,23.566507 147.837296,23.7026859 147.737055,23.8801857 C147.636815,24.0576855 147.587055,24.2434494 147.587055,24.4374775 C147.587055,24.6304276 147.635733,24.814395 147.734171,24.9893796 C147.832248,25.1647235 147.969267,25.3009024 148.145228,25.3989944 C148.320829,25.4967271 148.505805,25.5459527 148.699075,25.5459527 C148.892704,25.5459527 149.07768,25.4967271 149.253281,25.3989944 C149.428882,25.3009024 149.565901,25.1647235 149.663978,24.9893796 C149.762416,24.814395 149.811815,24.6304276 149.811815,24.4374775 C149.811815,24.2434494 149.761334,24.0576855 149.661454,23.8801857 M149.211671,24.0906702 L148.860829,24.4399208 L149.211671,24.7891713 L149.056262,24.9440345 L148.705781,24.5947839 L148.35494,24.9440345 L148.199531,24.7891713 L148.550373,24.4399208 L148.199531,24.0906702 L148.35494,23.9358071 L148.705781,24.2854169 L149.056262,23.9358071 L149.211671,24.0906702 Z M147.970529,31.5012853 C147.970529,32.7538444 147.221971,32.9410456 146.775577,32.9410456 L136.683029,32.9410456 C136.737115,34.1587514 137.140601,35.1130821 137.883029,35.7788859 C138.692163,36.5046946 139.845649,36.8729887 141.312837,36.8729887 C142.739279,36.8729887 144.037356,36.4906815 145.171731,35.7368465 C145.357788,35.613962 145.507788,35.5568315 145.644087,35.5568315 C145.792284,35.5568315 146.06524,35.6193517 146.224976,36.0383086 L146.894928,37.4313584 C146.97101,37.6081395 147.008149,37.7698296 147.008149,37.9178658 C147.008149,38.165072 146.884471,38.3853298 146.641442,38.5732496 C145.836995,39.1438359 144.963678,39.5689011 144.041322,39.8394625 C143.121851,40.1093052 142.051659,40.2458435 140.859952,40.2458435 C139.350577,40.2458435 137.965601,39.9425848 136.741803,39.3446909 C135.506106,38.7410479 134.508029,37.7949814 133.774615,36.5320023 C133.044087,35.2762094 132.674495,33.694162 132.674495,31.8304145 C132.674495,28.9419112 133.355264,26.7077138 134.699135,25.1903424 C136.05274,23.6625509 137.992284,22.8878758 140.463678,22.8878758 C142.918486,22.8878758 144.806466,23.6417108 146.075697,25.1281815 C147.333029,26.6009984 147.970529,28.745368 147.970529,31.5012853 Z M136.683029,29.9300172 C136.731346,28.8251351 137.061274,27.9243417 137.66524,27.2509924 C138.312115,26.5287768 139.263317,26.1626386 140.492163,26.1626386 C141.699014,26.1626386 142.609832,26.5158416 143.201178,27.2118275 C143.757188,27.8686485 144.060793,28.7827363 144.103341,29.9300172 L136.683029,29.9300172 Z M123.789123,22.8878758 C126.24393,22.8878758 128.132272,23.6417108 129.401502,25.1281815 C130.658113,26.6013577 131.295613,28.745368 131.295613,31.5012853 C131.295613,32.7538444 130.547055,32.9410456 130.101022,32.9410456 L120.008474,32.9410456 C120.06256,34.1583921 120.465685,35.1123635 121.208474,35.7788859 C122.017608,36.5046946 123.171094,36.8729887 124.638642,36.8729887 C126.064363,36.8729887 127.36244,36.4906815 128.497175,35.7368465 C128.683233,35.613962 128.832873,35.5568315 128.96881,35.5568315 C129.117728,35.5568315 129.390325,35.6193517 129.550421,36.0386679 L130.220012,37.4313584 C130.296094,37.6070616 130.333233,37.7687517 130.333233,37.9178658 C130.333233,38.165072 130.209916,38.3853298 129.966526,38.5732496 C129.163161,39.1431172 128.290204,39.5681825 127.366767,39.8394625 C126.447296,40.1093052 125.377464,40.2458435 124.185397,40.2458435 C122.676022,40.2458435 121.290685,39.9425848 120.067248,39.3446909 C118.831911,38.7406886 117.833474,37.7946221 117.0997,36.5320023 C116.369892,35.2758501 115.999579,33.6938027 115.999579,31.8304145 C115.999579,28.9419112 116.680709,26.7077138 118.024579,25.1903424 C119.378546,23.6625509 121.318089,22.8878758 123.789123,22.8878758 Z M127.428786,29.9300172 L120.008474,29.9300172 C120.056791,28.8254944 120.386358,27.9243417 120.990325,27.2509924 C121.6372,26.5287768 122.588401,26.1626386 123.817248,26.1626386 C125.024459,26.1626386 125.935637,26.5154823 126.526262,27.2118275 C127.082993,27.8690078 127.386238,28.7830957 127.428786,29.9300172 Z M116.594603,24.5254369 L116.575853,24.571788 L115.486911,26.5447662 C115.37369,26.9701907 115.078738,27.0384598 114.913594,27.0384598 L114.852656,27.0309143 L114.577175,26.9493506 C114.209026,26.7560412 113.806623,26.6500444 113.35482,26.6227367 C113.216358,26.6112387 113.081142,26.6033339 112.936911,26.6033339 C111.900974,26.6033339 110.133425,26.976299 109.780781,27.1487684 L109.780781,38.2712485 C109.780781,38.7318855 109.677656,39.0919154 109.475373,39.3409181 C109.258305,39.6082457 108.901695,39.7440653 108.415637,39.7440653 L106.943762,39.7440653 C106.510349,39.7440653 106.175012,39.6244147 105.946406,39.3879879 C105.932704,39.3768492 105.918281,39.3635547 105.9053,39.3484636 C105.689315,39.0976644 105.5797,38.7354786 105.5797,38.2712485 L105.5797,24.66988 C105.5797,24.2753562 105.643882,23.9943748 105.774772,23.8111261 C105.928377,23.5973359 106.199531,23.4934949 106.604459,23.4934949 L108.487392,23.4934949 C108.763233,23.4934949 108.984267,23.6178166 109.110829,23.8391524 C111.677776,23.0777718 112.994964,23.0335765 113.342921,23.0396848 C113.810589,23.0400441 115.688113,23.1341837 116.2928,23.5926648 C116.457945,23.7202203 116.562873,23.8643041 116.608305,24.0227604 C116.651214,24.1718746 116.646887,24.3411102 116.594603,24.5254369 Z M103.737404,23.7752309 C103.899663,23.9936921 103.978269,24.3353971 103.978269,24.8193894 L103.978269,25.7079662 C103.978269,26.1966295 103.897861,26.5351007 103.731995,26.7427826 C103.548822,26.9709452 103.229712,27.0816131 102.755553,27.0816131 L99.8738221,27.0816131 L99.8738221,34.0332081 C99.8738221,34.9803526 99.9740625,35.688555 100.277308,36.0611608 C100.44101,36.2620158 100.609399,36.3870561 100.756875,36.4646674 C101.030553,36.6087512 101.202909,36.8882953 101.202909,37.1965844 L101.202909,39.4189246 C101.202909,39.9180079 100.764447,40.3017523 100.267572,40.2395915 C98.6904087,40.0419703 95.6727404,39.0290718 95.6727404,34.164716 L95.6727404,19.2378483 C95.6727404,18.7962547 95.7614423,18.4646104 95.9435337,18.2249498 C96.1422115,17.9633712 96.4627644,17.8311447 96.8958173,17.8311447 L98.6507452,17.8311447 C99.0837981,17.8311447 99.4039904,17.9633712 99.6030288,18.2245905 C99.7854808,18.4646104 99.8738221,18.7962547 99.8738221,19.2378483 L99.8738221,23.4126858 L102.755553,23.4126858 C103.233678,23.4126858 103.554591,23.5312585 103.737404,23.7752309 Z M90.5483654,23.5277014 C91.7552163,23.9319265 93.6186779,24.8862572 93.6186779,24.8862572 L93.6186779,36.5685443 C93.6186779,39.2720022 93.0377885,41.4329001 91.8922356,42.9908737 C90.7261298,44.5757957 88.8861058,45.3792157 86.4233654,45.3792157 C84.9446394,45.3792157 83.3667548,45.0292465 82.6181971,44.8388115 C82.3578606,44.7726983 82.1808173,44.5362715 82.18875,44.2682253 L82.2583413,41.8626364 C82.2698798,41.473143 82.6575,41.2140795 83.0267308,41.3419944 C83.9097837,41.6477682 85.010625,41.841437 86.1118269,41.841437 C87.279375,41.841437 88.1379087,41.5220093 88.6636298,40.892496 C89.1093029,40.3564036 89.3739663,39.4811213 89.4507692,38.2882079 C89.0216827,38.6949483 88.545,39.0176098 88.0279327,39.2497249 C87.286226,39.5828064 86.3844231,39.752042 85.3474038,39.752042 C83.1561779,39.752042 81.4218029,39.0438395 80.1911538,37.6468373 C78.9695192,36.2616924 78.3504087,34.2933854 78.3504087,31.7968907 C78.3504087,28.9694704 79.0867067,26.7607841 80.5380288,25.2319147 C81.9940385,23.6980149 84.1167548,22.9204653 86.8474038,22.9204653 C88.0993269,22.9204653 89.3447596,23.1245541 90.5483654,23.5277014 Z M89.4738462,27.0367351 L89.4738462,32.7185241 C89.4738462,33.7738213 89.1695192,34.6074234 88.5695192,35.1948973 C87.9680769,35.7841678 87.169399,36.0827554 86.1965625,36.0827554 C84.9536538,36.0827554 84.0190385,35.7141021 83.419399,34.9868561 C82.8056971,34.2430818 82.4945192,33.0810692 82.4945192,31.5338749 C82.4945192,28.1628166 83.8625481,26.523998 86.6775721,26.523998 C87.2588221,26.523998 87.820601,26.5775353 88.3474038,26.6831728 C88.78875,26.7715634 89.1673558,26.8904954 89.4738462,27.0367351 Z M71.3527644,22.9199264 C72.9544471,22.9199264 74.2673077,23.4305077 75.2534856,24.4380164 C76.2382212,25.4437287 76.7372596,26.9564291 76.7372596,28.9337189 L76.7372596,38.3117428 C76.7372596,38.7716613 76.6344952,39.1316911 76.4322115,39.3810531 C76.2144231,39.64874 75.8675481,39.7845597 75.400601,39.7845597 L73.9002404,39.7845597 C73.4365385,39.7845597 73.0864183,39.6508959 72.859976,39.3875208 C72.6447115,39.1377994 72.5358173,38.7756137 72.5358173,38.3117428 L72.5358173,29.1967348 C72.5358173,28.2032391 72.3479567,27.500067 71.9772837,27.1069805 C71.6112981,26.7196429 70.9918269,26.5230997 70.1358173,26.5230997 C69.1013221,26.5230997 67.0929087,26.892831 66.6883413,27.0767983 L66.6883413,38.3117428 C66.6883413,38.7727392 66.5859375,39.1324098 66.3836538,39.3814125 C66.166226,39.64874 65.8092548,39.7845597 65.3239183,39.7845597 L63.8520433,39.7845597 C63.3883413,39.7845597 63.0382212,39.6508959 62.8117788,39.3875208 C62.5965144,39.1374401 62.4876202,38.7752544 62.4876202,38.3117428 L62.4876202,24.5900051 C62.4876202,24.195122 62.5514423,23.9141406 62.6834135,23.7312512 C62.8359375,23.517461 63.1070913,23.41362 63.5123798,23.41362 L65.3953125,23.41362 C65.6772837,23.41362 65.9012019,23.5422535 66.0263221,23.7718534 C66.2992788,23.7035842 66.5534856,23.6381896 66.7954327,23.5756694 C68.3282452,23.1807863 69.3403846,22.9199264 71.3527644,22.9199264 Z M59.0839904,23.413656 C59.5476923,23.413656 59.8978125,23.5469604 60.1242548,23.8103356 C60.3391587,24.0600569 60.4484135,24.4333813 60.4484135,24.9191701 L60.4484135,38.3117788 C60.4484135,38.7720565 60.3460096,39.1320864 60.143726,39.3810891 C59.9259375,39.648776 59.5693269,39.7845956 59.0839904,39.7845956 L57.6117548,39.7845956 C57.1480529,39.7845956 56.7979327,39.6509318 56.571851,39.3875567 C56.3565865,39.137476 56.2473317,38.7752903 56.2473317,38.3117788 L56.2473317,24.9191701 C56.2473317,24.4337406 56.3565865,24.0604162 56.571851,23.8103356 C56.7979327,23.5469604 57.1480529,23.413656 57.6117548,23.413656 L59.0839904,23.413656 Z M53.8367308,16.5358995 C53.9412981,16.489189 54.0530769,16.5818913 54.1230288,16.6656108 C54.1821635,16.7360358 54.2120913,16.825145 54.2120913,16.9304232 L54.2120913,38.2397369 C54.2120913,38.2397369 52.3655769,39.2066435 51.1277163,39.6223666 C49.8952644,40.0362932 48.5975481,40.2461309 47.2713462,40.2461309 C41.7451442,40.2461309 38.9434615,37.315229 38.9434615,31.5342701 C38.9434615,29.8570051 39.2279567,28.351491 39.7882933,27.059767 C40.3547596,25.7536705 41.1844471,24.7213693 42.2535577,23.9912488 C43.326274,23.2593318 44.6052404,22.8881632 46.0540385,22.8881632 C47.774351,22.8881632 49.1221875,23.2762194 50.0672596,24.0419117 L50.0672596,19.7150855 C50.0672596,19.1768372 52.6158173,17.080256 53.8367308,16.5358995 Z M50.0672596,29.4610441 L50.0672596,36.0217084 C49.3951442,36.4553971 48.4836058,36.6756549 47.3560817,36.6756549 C45.9199038,36.6756549 44.8396154,36.2868802 44.1458654,35.5204692 C43.4441827,34.7457942 43.0882933,33.4379012 43.0882933,31.6327214 C43.0882933,30.0125869 43.4135337,28.7280492 44.0546394,27.8168358 C44.67375,26.9376012 45.6321635,26.4913366 46.9031971,26.4913366 C47.8457452,26.4913366 48.620625,26.744651 49.2058413,27.244453 C49.7773558,27.7334756 50.0672596,28.4794058 50.0672596,29.4610441 Z M31.9600601,22.9199264 C33.5621034,22.9199264 34.8746034,23.4305077 35.8607812,24.4380164 C36.8451562,25.4433693 37.3441947,26.9560698 37.3441947,28.9337189 L37.3441947,38.3117428 C37.3441947,38.7720206 37.2414303,39.1320504 37.0387861,39.3810531 C36.8217187,39.64874 36.4748437,39.7845597 36.0078966,39.7845597 L34.5075361,39.7845597 C34.0434736,39.7845597 33.6933534,39.6508959 33.4672716,39.3875208 C33.2520072,39.1377994 33.143113,38.7756137 33.143113,38.3117428 L33.143113,29.1967348 C33.143113,28.2028798 32.9552524,27.4997077 32.5845793,27.1069805 C32.2185937,26.7196429 31.598762,26.5230997 30.743113,26.5230997 C29.7086178,26.5230997 27.7002043,26.892831 27.295637,27.0767983 L27.295637,38.3117428 C27.295637,38.7723799 27.1932332,39.1320504 26.9909495,39.3814125 C26.7735216,39.64874 26.4169111,39.7845597 25.9312139,39.7845597 L24.4593389,39.7845597 C23.9952764,39.7845597 23.6451562,39.6508959 23.4190745,39.3875208 C23.2038101,39.1374401 23.0949159,38.7752544 23.0949159,38.3117428 L23.0949159,24.5900051 C23.0949159,24.195122 23.158738,23.9141406 23.2907091,23.7312512 C23.4432332,23.517461 23.714387,23.41362 24.1196755,23.41362 L26.0026082,23.41362 C26.3635457,23.41362 26.545637,23.614475 26.6325361,23.7718534 C26.8719591,23.7122077 27.0969591,23.6543586 27.3111418,23.599384 L27.4030889,23.5756694 C28.9355409,23.1807863 29.9476803,22.9199264 31.9600601,22.9199264 Z M13.9779447,22.8878758 C16.433113,22.8878758 18.3214543,23.6417108 19.5903245,25.1281815 C20.8472957,26.601717 21.4847957,28.7457273 21.4847957,31.5012853 C21.4847957,32.7538444 20.736238,32.9410456 20.2902043,32.9410456 L10.1976562,32.9410456 C10.2517428,34.1587514 10.6548678,35.1130821 11.3976562,35.7788859 C12.2064303,36.5046946 13.3602764,36.8729887 14.8271034,36.8729887 C16.2535457,36.8729887 17.5519832,36.4906815 18.6863582,35.7368465 C18.8720553,35.613962 19.0216947,35.5568315 19.1579928,35.5568315 C19.3061899,35.5568315 19.5787861,35.6193517 19.7392428,36.0383086 L20.4091947,37.4313584 C20.4852764,37.6081395 20.5224159,37.7698296 20.5224159,37.9178658 C20.5224159,38.1643534 20.3990986,38.3849705 20.1564303,38.5732496 C19.3516226,39.1438359 18.4779447,39.5685418 17.5555889,39.8394625 C16.6364784,40.1093052 15.5662861,40.2458435 14.3742187,40.2458435 C12.8655649,40.2458435 11.4798678,39.9425848 10.2564303,39.3446909 C9.0203726,38.7406886 8.0219351,37.7946221 7.28852163,36.5320023 C6.55871394,35.2758501 6.18840144,33.694162 6.18840144,31.8304145 C6.18840144,28.9415519 6.86989183,26.7073545 8.21376202,25.1903424 C9.56736779,23.6625509 11.5065505,22.8878758 13.9779447,22.8878758 Z M17.6183293,29.9300172 L10.1976563,29.9300172 C10.245613,28.8251351 10.5755409,27.9243417 11.1795072,27.2506331 C11.8263822,26.5287768 12.7775841,26.1626386 14.0064303,26.1626386 C15.2136418,26.1626386 16.1244591,26.5154823 16.7150841,27.2121868 C17.2718149,27.8686485 17.5750601,28.7827363 17.6183293,29.9300172 Z M4.60481971,36.0613045 C4.76852163,36.2621595 4.93691106,36.3871999 5.08438702,36.4648111 C5.35770433,36.6088949 5.5300601,36.8880798 5.5300601,37.1963688 L5.5300601,39.418709 C5.5300601,39.9177923 5.09195913,40.3015367 4.59472356,40.2393759 C3.01792067,40.042114 -0.000108173077,39.0288563 -0.000108173077,34.1648597 L-0.000108173077,18.3950478 C-0.000108173077,17.9534543 0.08859375,17.6221693 0.270685096,17.3825087 C0.469362981,17.1212894 0.789915865,16.9883442 1.22332933,16.9883442 L2.97789663,16.9883442 C3.41094952,16.9883442 3.7315024,17.1209301 3.93018029,17.3821493 C4.11263221,17.6221693 4.20097356,17.9538136 4.20097356,18.3950478 L4.20097356,34.0329925 C4.20097356,34.980137 4.30157452,35.6886988 4.60481971,36.0613045 Z" id="Name" fill="#101F30"></path>
                        <path d="M76.9350595,0.361612855 C75.8527883,0.523241789 68.7747345,1.27751015 63.550972,2.57413337 C56.112161,4.42029497 56.2456412,10.6017038 56.2456412,13.0440965 L56.2456412,15.9606009 C56.2456412,15.9606009 56.2456412,21.172236 56.2456412,21.2979474 C56.2456412,21.4236588 56.339438,21.4272506 56.4007667,21.3446402 C59.5071994,17.2319417 63.0298512,13.4479139 66.9132279,10.0521654 C66.9132279,10.0521654 66.9384809,10.0270231 66.8915825,10.0521654 C64.6724286,10.7432117 62.5303397,11.6591126 60.4989671,12.7854902 C60.4989671,12.1928508 60.4989671,11.8049414 60.4989671,11.7366981 C60.4701065,7.53075401 62.9557228,6.39216797 65.9103233,5.56965628 C68.3310032,4.90159002 72.8404667,4.51727233 72.8404667,4.51727233 C72.8404667,4.51727233 72.4797096,7.14284457 71.9926876,12.4801911 C71.6319305,16.3844278 68.7458739,17.2536323 64.752293,17.2536323 L62.4867386,17.2536323 C60.6829532,19.843287 60.4376384,21.4021083 60.4376384,21.4021083 L64.8713429,21.4021083 C73.3058433,21.4021083 75.1889953,17.7026016 75.5894356,12.2287684 C76.0981031,5.27154069 76.8015794,1.2344091 77.0108185,0.476548986 C77.0238671,0.451237895 77.0222437,0.420898348 77.0065652,0.397110161 C76.9908867,0.373325565 76.9635738,0.359766693 76.9350595,0.361612855 Z" id="Gradient-Leaf" fill="url(#linearGradient-1)"></path>
                    </g>
                </g>
            </g>
        </g>
    </g>
</svg>