<?xml version="1.0" encoding="UTF-8"?>
<svg width="254px" height="47px" viewBox="0 0 254 47" version="1.1" xmlns="http://www.w3.org/2000/svg" xmlns:xlink="http://www.w3.org/1999/xlink">
    <!-- Generator: Sketch 50.2 (55047) - http://www.bohemiancoding.com/sketch -->
    <title>logos/comparecards</title>
    <desc>Created with Sketch.</desc>
    <defs></defs>
    <g id="Page-1" stroke="none" stroke-width="1" fill="none" fill-rule="evenodd">
        <g id="D---About-Hub" transform="translate(-946.000000, -3263.000000)">
            <g id="Group-9" transform="translate(239.000000, 3099.000000)">
                <g id="Group-14" transform="translate(0.000000, 158.000000)">
                    <g id="Group-13">
                        <g id="logos/comparecards" transform="translate(707.000000, 6.000000)">
                            <path d="M249.03814,7.6737629 L249.03814,10.2316839 L248.329302,10.2316839 L248.329302,7.6737629 L247.350432,7.6737629 L247.350432,6.99165064 L250.008571,6.99165064 L250.008571,7.6737629 L249.03814,7.6737629 Z M253.299601,10.2316839 L253.299601,8.11713586 L252.396678,9.50693959 L251.468439,8.12566227 L251.468439,10.2316839 L250.76804,10.2316839 L250.76804,6.99165064 L251.527508,6.99165064 L252.371362,8.36440156 L253.215216,6.99165064 L253.974684,6.99165064 L253.974684,10.2316839 L253.299601,10.2316839 Z" id="™" fill="#035B7C"></path>
                            <path d="M247.789236,46.520056 C247.32897,46.7888812 246.801121,46.9162913 246.270299,46.8866913 L245.696478,46.8866913 L245.114219,46.8355329 L245.114219,45.2496219 L245.662724,45.3007803 C245.848142,45.3139953 246.03425,45.3139953 246.219668,45.3007803 C246.437279,45.2885031 246.638242,45.1791654 246.768173,45.0023562 C246.885132,44.8386737 246.947226,44.6414906 246.945382,44.4396136 C246.947203,44.2939137 246.921424,44.1492067 246.869435,44.0132934 L244.464452,37.5161742 L246.472824,37.5161742 L248.025515,42.2739072 L249.561329,37.5161742 L251.51907,37.5161742 L248.649967,45.3178331 C248.499422,45.8021533 248.197382,46.2240262 247.789236,46.520056 Z M243.43495,34.8644628 L243.43495,44.4566664 L241.544718,44.4566664 L241.544718,34.8644628 L243.43495,34.8644628 Z M235.553355,42.7940177 C236.188929,43.2974865 237.06734,43.3484955 237.755814,42.9219138 C237.988926,42.7815995 238.167571,42.5649933 238.262126,42.3080128 L239.949834,42.3080128 C239.760563,43.0282251 239.327645,43.6587217 238.726246,44.090031 C238.12854,44.4616684 237.436245,44.6484004 236.734751,44.6271944 C236.235907,44.6338651 235.740397,44.5441498 235.274884,44.3628759 C234.856929,44.2006942 234.479492,43.9474199 234.169435,43.6210789 C233.86233,43.2884276 233.624191,42.8970599 233.469037,42.4700144 C233.302074,41.9967377 233.219227,41.4973652 233.224319,40.9949467 C233.220565,40.500232 233.306361,40.0089924 233.477475,39.5454581 C233.79603,38.6717654 234.459167,37.9708454 235.308638,37.6099646 C235.759817,37.4181351 236.245293,37.322351 236.734751,37.3285933 C237.263702,37.3155796 237.787863,37.4326223 238.262126,37.6696494 C238.685397,37.888173 239.052359,38.2034843 239.333821,38.590501 C239.617974,38.9846723 239.824263,39.4304947 239.941395,39.9035671 C240.067069,40.4075114 240.112644,40.9284406 240.076412,41.446846 L235.12299,41.446846 C235.092091,41.9348098 235.245937,42.4163949 235.553355,42.7940177 Z M237.688306,39.1447172 C237.414681,38.8755999 237.039443,38.738859 236.658804,38.7695554 C236.400126,38.7618569 236.143161,38.8143685 235.907774,38.9230307 C235.721818,39.0141968 235.557697,39.1451152 235.426777,39.3067188 C235.311612,39.450343 235.225588,39.615491 235.173621,39.7927238 C235.129171,39.9426822 235.100878,40.0970524 235.089236,40.2531496 L238.160864,40.2531496 C238.107339,39.8426295 237.940665,39.4555841 237.679867,39.1361908 L237.688306,39.1447172 Z M227.646445,42.7258065 C227.727393,42.871521 227.839899,42.9968574 227.975548,43.0924419 C228.114017,43.1878041 228.268386,43.2571268 228.431229,43.2970755 C228.607668,43.3428176 228.789142,43.3657379 228.971296,43.3652868 C229.113033,43.3661596 229.254463,43.3518693 229.393223,43.3226547 C229.53184,43.2945899 229.665522,43.2457331 229.789834,43.1777059 C229.906364,43.1126759 230.007221,43.0224152 230.085183,42.9133874 C230.168673,42.7877038 230.210079,42.6382831 230.203322,42.4870672 C230.203322,42.2028538 230.014862,41.9868516 229.63794,41.8390606 C229.122763,41.6588158 228.595393,41.5163396 228.059934,41.4127404 C227.784275,41.3502135 227.50299,41.276318 227.21608,41.1910539 C226.968273,41.1141099 226.732474,41.0021593 226.515681,40.8585242 C226.316103,40.7243076 226.148854,40.5465766 226.026246,40.3384136 C225.895369,40.1017739 225.831163,39.8334254 225.840598,39.5625109 C225.839752,39.1707614 225.947945,38.7866657 226.152824,38.4540785 C226.319325,38.1714987 226.554631,37.9366775 226.836346,37.7719663 C227.132218,37.6015157 227.454692,37.4832937 227.7899,37.4223837 C228.148847,37.3543498 228.513264,37.3200975 228.878472,37.3200669 C229.241267,37.3206622 229.603099,37.3577935 229.958605,37.4309101 C230.28969,37.4966867 230.606746,37.620789 230.895282,37.7975455 C231.171086,37.9699642 231.404749,38.2031457 231.578804,38.4796577 C231.774359,38.8018159 231.887461,39.1680973 231.907907,39.5454581 L230.110498,39.5454581 C230.113447,39.2413815 229.955895,38.958733 229.69701,38.803661 C229.434636,38.6729029 229.145703,38.6057564 228.853156,38.6075538 L228.507176,38.6075538 C228.391005,38.6183444 228.277164,38.6471011 228.169635,38.6928178 C228.068395,38.7365062 227.978773,38.8036921 227.90804,38.8889251 C227.831943,38.9855123 227.792981,39.1066456 227.798339,39.2299812 C227.792945,39.3907612 227.861487,39.5450145 227.983987,39.647775 C228.126155,39.7660905 228.289426,39.8558115 228.464983,39.9120935 C228.689201,39.9850983 228.917426,40.0448837 229.148505,40.0911479 L229.933289,40.2702024 C230.218576,40.3310921 230.500294,40.4079481 230.777143,40.5004153 C231.026911,40.5839872 231.262966,40.7046809 231.477542,40.8585242 C231.679008,41.0046818 231.846116,41.1939089 231.966977,41.4127404 C232.105325,41.6742801 232.169566,41.9693216 232.152625,42.2653807 C232.18887,43.0308424 231.810745,43.7557825 231.165316,44.1582423 C230.857542,44.3507445 230.517026,44.4837432 230.16113,44.5504568 C229.783075,44.6251262 229.398697,44.6622507 229.013488,44.6613001 C228.619466,44.6626708 228.226369,44.6226661 227.840532,44.5419304 C227.482138,44.4700949 227.139252,44.3343999 226.827907,44.1411895 C226.52995,43.9543082 226.27871,43.700452 226.093754,43.3993924 C225.891021,43.0471386 225.783357,42.6472822 225.781528,42.2398015 L227.578937,42.2398015 C227.563081,42.404918 227.586217,42.5714798 227.646445,42.7258065 Z M222.355482,36.4418474 L222.355482,34.8644628 L224.245714,34.8644628 L224.245714,36.4333209 L222.355482,36.4418474 Z M224.237276,37.5161742 L224.237276,44.4566664 L222.355482,44.4566664 L222.355482,37.5161742 L224.237276,37.5161742 Z M216.583522,44.4566664 L214.971761,37.9339679 L213.393754,44.4566664 L211.28412,44.4566664 L208.752558,34.8644628 L210.836877,34.8644628 L212.338937,41.3871612 L214.026645,34.8644628 L215.984385,34.8644628 L217.604585,41.4724252 L219.157276,34.8644628 L221.207841,34.8644628 L218.676279,44.4566664 L216.583522,44.4566664 Z M199.453289,42.7940177 C200.088863,43.2974865 200.967273,43.3484955 201.655748,42.9219138 C201.88886,42.7815995 202.067505,42.5649933 202.16206,42.3080128 L203.849767,42.3080128 C203.660496,43.0282251 203.227578,43.6587217 202.626179,44.090031 C202.028474,44.4616684 201.336178,44.6484004 200.634684,44.6271944 C200.125681,44.6290214 199.621208,44.5305517 199.149502,44.3372967 C198.731547,44.175115 198.35411,43.9218407 198.044053,43.5954997 C197.736948,43.2628484 197.498809,42.8714807 197.343654,42.4444352 C197.176692,41.9711585 197.093845,41.471786 197.098937,40.9693675 C197.095183,40.4746528 197.180979,39.9834132 197.352093,39.5198789 C197.668743,38.6624385 198.317903,37.9726456 199.149502,37.6099646 C199.600681,37.4181351 200.086157,37.322351 200.575615,37.3285933 C201.104566,37.3155796 201.628727,37.4326223 202.10299,37.6696494 C202.526261,37.888173 202.893223,38.2034843 203.174684,38.590501 C203.458838,38.9846723 203.665127,39.4304947 203.782259,39.9035671 C203.907933,40.4075114 203.953507,40.9284406 203.917276,41.446846 L198.963854,41.446846 C198.949251,41.9428259 199.124566,42.4253811 199.453289,42.7940177 Z M201.588239,39.1447172 C201.314615,38.8755999 200.939377,38.738859 200.558738,38.7695554 C200.30006,38.7618569 200.043094,38.8143685 199.807708,38.9230307 C199.621752,39.0141968 199.457631,39.1451152 199.326711,39.3067188 C199.211546,39.450343 199.125522,39.615491 199.073555,39.7927238 C199.029104,39.9426822 199.000812,40.0970524 198.989169,40.2531496 L202.060797,40.2531496 C202.009713,39.8435155 201.845999,39.4565549 201.588239,39.1361908 L201.588239,39.1447172 Z M191.554817,42.7258065 C191.635765,42.871521 191.748271,42.9968574 191.88392,43.0924419 C192.022389,43.1878041 192.176758,43.2571268 192.339601,43.2970755 C192.516041,43.3428176 192.697514,43.3657379 192.879668,43.3652868 C193.021405,43.3661596 193.162835,43.3518693 193.301595,43.3226547 C193.440212,43.2945899 193.573894,43.2457331 193.698206,43.1777059 C193.814736,43.1126759 193.915593,43.0224152 193.993555,42.9133874 C194.077045,42.7877038 194.118451,42.6382831 194.111694,42.4870672 C194.111694,42.2028538 193.923234,41.9868516 193.546312,41.8390606 C193.031135,41.6588158 192.503765,41.5163396 191.968306,41.4127404 C191.692647,41.3502135 191.411362,41.276318 191.124452,41.1910539 C190.876645,41.1141099 190.640846,41.0021593 190.424053,40.8585242 C190.224475,40.7243076 190.057226,40.5465766 189.934618,40.3384136 C189.803742,40.1017739 189.739535,39.8334254 189.74897,39.5625109 C189.734392,39.1785437 189.824909,38.7979528 190.010565,38.4626049 C190.177065,38.1800251 190.412372,37.9452039 190.694086,37.7804927 C190.989959,37.6100421 191.312433,37.4918201 191.647641,37.4309101 C192.006588,37.3628762 192.371005,37.3286239 192.736213,37.3285933 C193.099007,37.3291886 193.46084,37.3663199 193.816346,37.4394365 C194.147431,37.5052131 194.464487,37.6293154 194.753023,37.8060719 C195.028827,37.9784906 195.26249,38.2116721 195.436545,38.4881841 C195.632099,38.8103423 195.745202,39.1766237 195.765648,39.5539845 L193.968239,39.5539845 C193.971188,39.2499079 193.813635,38.9672594 193.554751,38.8121874 C193.292377,38.6814293 193.003444,38.6142828 192.710897,38.6160802 L192.364917,38.6160802 C192.248746,38.6268708 192.134905,38.6556275 192.027375,38.7013442 C191.926136,38.7450326 191.836514,38.8122185 191.765781,38.8974515 C191.689684,38.9940387 191.650722,39.115172 191.65608,39.2385076 C191.650685,39.3992876 191.719228,39.5535409 191.841728,39.6563014 C191.983896,39.7746169 192.147166,39.8643379 192.322724,39.9206199 C192.546942,39.9936247 192.775167,40.0534101 193.006246,40.0996743 L193.79103,40.2787288 C194.076317,40.3396185 194.358035,40.4164745 194.634884,40.5089417 C194.884651,40.5925136 195.120707,40.7132073 195.335282,40.8670506 C195.536748,41.0132082 195.703857,41.2024353 195.824718,41.4212668 C195.963066,41.6828065 196.027307,41.977848 196.010365,42.2739072 C196.046611,43.0393688 195.668486,43.7643089 195.023056,44.1667687 C194.715283,44.3592709 194.374767,44.4922696 194.01887,44.5589832 C193.640815,44.6336526 193.256438,44.6707771 192.871229,44.6698265 C192.477207,44.6711972 192.08411,44.6311925 191.698272,44.5504568 C191.339878,44.4786213 190.996993,44.3429263 190.685648,44.1497159 C190.387691,43.9628346 190.13645,43.7089784 189.951495,43.4079188 C189.748762,43.055665 189.641098,42.6558086 189.639269,42.2483279 L191.436678,42.2483279 C191.438015,42.414703 191.47851,42.5783691 191.554817,42.7258065 Z M181.55515,39.4772469 C181.863361,38.6068052 182.532084,37.9155507 183.386312,37.5843854 C183.851881,37.4033138 184.347352,37.3136056 184.846179,37.3200669 C185.347737,37.3137675 185.845942,37.4034523 186.314485,37.5843854 C187.182193,37.9062304 187.864794,38.5990596 188.179402,39.4772469 C188.353209,39.9607524 188.438976,40.4720501 188.432558,40.9864203 C188.439077,41.4980199 188.35329,42.006539 188.179402,42.4870672 C188.023151,42.917486 187.778729,43.3097263 187.462126,43.6381317 C187.144785,43.9615427 186.761906,44.2116967 186.339801,44.3714023 C185.870078,44.5471013 185.372328,44.6338139 184.871495,44.6271944 C184.3734,44.633939 183.878393,44.5472059 183.411628,44.3714023 C182.992779,44.2101343 182.612967,43.9601045 182.297741,43.6381317 C181.981138,43.3097263 181.736717,42.917486 181.580465,42.4870672 C181.40621,42.0066376 181.320412,41.4980497 181.327309,40.9864203 C181.312768,40.4736086 181.389952,39.9623554 181.55515,39.4772469 Z M183.242857,41.7964286 C183.290796,42.0465886 183.38222,42.2861885 183.51289,42.50412 C183.639913,42.7128459 183.816948,42.8858598 184.027641,43.0071778 C184.27345,43.1410198 184.550288,43.2057972 184.829302,43.1947587 C185.122311,43.2118762 185.414312,43.146967 185.673156,43.0071778 C185.88407,42.8861577 186.061172,42.7130789 186.187907,42.50412 C186.318577,42.2861885 186.410001,42.0465886 186.45794,41.7964286 C186.512872,41.5157061 186.538328,41.2299099 186.533887,40.9437882 C186.537592,40.6576947 186.512143,40.3719755 186.45794,40.0911479 C186.411422,39.8405779 186.319903,39.6007281 186.187907,39.3834565 C186.058713,39.1765029 185.882168,39.0039684 185.673156,38.8803987 C185.415799,38.7359405 185.123261,38.6679561 184.829302,38.6842914 C184.299643,38.6584271 183.798181,38.9264787 183.521329,39.3834565 C183.389333,39.6007281 183.297814,39.8405779 183.251296,40.0911479 C183.197093,40.3719755 183.171643,40.6576947 183.175349,40.9437882 C183.177636,41.2248098 183.208743,41.504835 183.268173,41.7793758 L183.242857,41.7964286 Z M173.099734,39.4772469 C173.407946,38.6068052 174.076669,37.9155507 174.930897,37.5843854 C175.396466,37.4033138 175.891937,37.3136056 176.390764,37.3200669 C176.892321,37.3137675 177.390526,37.4034523 177.85907,37.5843854 C178.733199,37.902005 179.422592,38.5954525 179.740864,39.4772469 C179.914671,39.9607524 180.000438,40.4720501 179.99402,40.9864203 C180.000538,41.4980199 179.914752,42.006539 179.740864,42.4870672 C179.584612,42.917486 179.340191,43.3097263 179.023588,43.6381317 C178.706247,43.9615427 178.323367,44.2116967 177.901262,44.3714023 C177.43154,44.5471013 176.93379,44.6338139 176.432957,44.6271944 C175.934862,44.633939 175.439855,44.5472059 174.97309,44.3714023 C174.554241,44.2101343 174.174429,43.9601045 173.859203,43.6381317 C173.542599,43.3097263 173.298178,42.917486 173.141927,42.4870672 C172.967671,42.0066376 172.881874,41.4980497 172.888771,40.9864203 C172.8688,40.4746423 172.940263,39.9634161 173.099734,39.4772469 Z M174.787442,41.7964286 C174.835381,42.0465886 174.926805,42.2861885 175.057475,42.50412 C175.184497,42.7128459 175.361533,42.8858598 175.572226,43.0071778 C175.818035,43.1410198 176.094873,43.2057972 176.373887,43.1947587 C176.666895,43.2118762 176.958896,43.146967 177.217741,43.0071778 C177.428655,42.8861577 177.605757,42.7130789 177.732492,42.50412 C177.863162,42.2861885 177.954586,42.0465886 178.002525,41.7964286 C178.057456,41.5157061 178.082913,41.2299099 178.078472,40.9437882 C178.082177,40.6576947 178.056727,40.3719755 178.002525,40.0911479 C177.956007,39.8405779 177.864487,39.6007281 177.732492,39.3834565 C177.603298,39.1765029 177.426753,39.0039684 177.217741,38.8803987 C176.960384,38.7359405 176.667845,38.6679561 176.373887,38.6842914 C175.844228,38.6584271 175.342766,38.9264787 175.065914,39.3834565 C174.933918,39.6007281 174.842399,39.8405779 174.79588,40.0911479 C174.741678,40.3719755 174.716228,40.6576947 174.719934,40.9437882 C174.72222,41.2248098 174.753328,41.504835 174.812757,41.7793758 L174.787442,41.7964286 Z M166.728638,34.8644628 L166.728638,38.4796577 C166.946686,38.1111407 167.266325,37.8148409 167.648439,37.6270174 C167.985926,37.4533018 168.358297,37.3599688 168.73701,37.3541725 C169.15981,37.3390341 169.581395,37.4085811 169.977475,37.5588062 C170.279461,37.6804597 170.544341,37.8804534 170.745382,38.1386016 C170.93973,38.4069243 171.072345,38.7156992 171.133555,39.0424003 C171.211144,39.4295999 171.247916,39.8240156 171.243256,40.219044 L171.243256,44.4822456 L169.353023,44.4822456 L169.353023,40.5601001 C169.382963,40.1176478 169.292497,39.6753532 169.091429,39.2811396 C168.875127,38.9777186 168.514288,38.8149526 168.146312,38.8548195 C167.723036,38.8163344 167.307642,38.9880378 167.032425,39.3152452 C166.762045,39.7749395 166.641048,40.308695 166.686445,40.8414714 L166.686445,44.4822456 L164.796213,44.4822456 L164.796213,34.8644628 L166.728638,34.8644628 Z M160.948239,37.4223837 C160.823719,37.2213072 160.666858,37.0426403 160.48412,36.8937467 C160.096736,36.5787631 159.614315,36.4072548 159.117076,36.4077417 C158.701155,36.3938991 158.288647,36.4878267 157.918804,36.6805866 C157.598747,36.8591613 157.326507,37.1137518 157.125581,37.4223837 C156.915148,37.744961 156.76367,38.1030528 156.678339,38.4796577 C156.583506,38.8790181 156.535359,39.2882389 156.534884,39.6989334 C156.53517,40.0955829 156.583344,40.490716 156.678339,40.875577 C156.766257,41.2407099 156.917692,41.5871516 157.125581,41.8987454 C157.328312,42.2036044 157.600291,42.4550271 157.918804,42.6320161 C158.288647,42.824776 158.701155,42.9187036 159.117076,42.904861 C159.67577,42.9365082 160.220609,42.7219018 160.610698,42.3165392 C160.98859,41.8802934 161.219136,41.3337655 161.268904,40.7562074 L163.285714,40.7562074 C163.242057,41.319119 163.102156,41.8701236 162.872226,42.3847504 C162.672571,42.8480396 162.386011,43.267878 162.028372,43.6210789 C161.659509,43.9635475 161.22615,44.2274301 160.754153,44.3969816 C160.236362,44.5797693 159.690819,44.6692349 159.142392,44.6613001 C158.47058,44.6714983 157.803972,44.5408529 157.184651,44.2776119 C156.625538,44.0362015 156.124669,43.6755433 155.716346,43.2203379 C155.309798,42.7609746 154.997198,42.2248905 154.796545,41.6429533 C154.579526,41.0155278 154.471053,40.3550288 154.47588,39.690407 C154.469725,39.0117634 154.578168,38.33703 154.796545,37.6952286 C154.997208,37.1056217 155.309627,36.5611597 155.716346,36.0922648 C156.12296,35.6308907 156.623958,35.2643217 157.184651,35.017938 C158.278226,34.5587655 159.496499,34.5014414 160.627575,34.8559364 C161.07947,35.0013859 161.5023,35.2265492 161.876478,35.5209958 C162.248508,35.8171216 162.55834,36.1852551 162.787841,36.603849 C163.033362,37.0602373 163.185463,37.5618873 163.235083,38.0789168 L161.17608,38.0789168 C161.145592,37.8465776 161.068031,37.6230826 160.948239,37.4223837 Z" id="Tagline" fill="#035B7C"></path>
                            <path d="M229.4101,15.1514185 L229.4101,6.98312424 L235.435216,6.98312424 L235.435216,30.3795747 L229.418538,30.3795747 L229.418538,28.0689194 C228.213553,29.7751071 226.261032,30.7806246 224.186645,30.7632628 C220.110831,30.7632628 216.59196,27.3271223 216.59196,21.7849602 L216.59196,21.7252754 C216.59196,16.0637437 220.085515,12.6531824 224.144452,12.6531824 C226.189221,12.6105611 228.13656,13.5344575 229.4101,15.1514185 Z M229.502924,21.7252754 L229.502924,21.6570642 C229.615509,20.3195037 228.972936,19.0319013 227.841617,18.3281011 C226.710298,17.6243009 225.283124,17.6243009 224.151805,18.3281011 C223.020486,19.0319013 222.377913,20.3195037 222.490498,21.6570642 L222.490498,21.7252754 C222.423602,22.7232478 222.76033,23.7059364 223.423626,24.4484631 C224.086922,25.1909899 225.020013,25.6297991 226.009369,25.6644737 C227.950233,25.6644737 229.502924,24.0359307 229.502924,21.7252754 Z M245.080465,19.3805145 C248.472757,20.3439981 251.17309,21.5291681 251.147774,24.8970974 L251.147774,24.9653086 C251.147774,28.7766109 248.354618,30.7632628 244.135349,30.7632628 C241.230854,30.7919779 238.390958,29.897134 236.017475,28.2053418 L238.270565,24.5219357 C240.013082,25.7371149 242.061863,26.4261671 244.177542,26.5085876 C245.22392,26.5085876 245.696478,26.1845843 245.696478,25.5792097 L245.696478,25.4854192 C245.696478,24.8118334 244.742924,24.5219357 242.937076,24.0103515 C239.544784,23.1150791 236.844452,21.9640147 236.844452,18.4681894 L236.844452,18.3999781 C236.844452,14.716572 239.764186,12.6617088 243.730299,12.6617088 C246.227591,12.6576587 248.676506,13.3574632 250.801794,14.6824663 L248.742791,18.5278742 C247.200268,17.6055937 245.467254,17.0569286 243.679668,16.9249104 C242.759867,16.9249104 242.287309,17.3000721 242.287309,17.7775507 L242.287309,17.8457619 C242.287309,18.5278742 243.274618,18.8348247 245.080465,19.3805145 Z M178.500399,25.6644737 C179.82111,25.6381211 181.048773,24.9718969 181.799867,23.873929 L185.82505,26.8240645 C184.174086,29.4467221 181.251418,30.9656454 178.179734,30.7973684 C174.346125,30.8492002 170.91694,28.3969111 169.690565,24.7265693 L171.099801,24.7265693 L171.226379,23.4902409 L171.226379,22.1345428 C171.25496,20.4693846 170.968544,18.8140319 170.382525,17.2574401 C172.028805,14.3560493 175.115462,12.5986583 178.424452,12.6787616 C181.383778,12.5242247 184.191326,14.0112469 185.749103,16.558275 L181.656412,19.6363066 C180.984494,18.4954228 179.763649,17.8007351 178.449767,17.8116563 C176.500465,17.8116563 175.074352,19.5425162 175.074352,21.6570642 L175.074352,21.7252754 C175.074352,23.959193 176.466711,25.6644737 178.500399,25.6644737 Z M194.162326,12.7896048 C197.242392,12.7896048 199.385781,13.6422451 200.685316,14.8956264 C201.98485,16.1490077 202.524917,17.973658 202.524917,20.4122093 L202.524917,30.3625219 L196.567309,30.3625219 L196.567309,28.5634508 C195.285168,30.0160847 193.429275,30.8161774 191.504186,30.74621 C188.263787,30.74621 185.732226,28.8533485 185.732226,25.3916288 L185.732226,25.3234176 C185.732226,21.7338018 188.449435,19.8750459 192.483056,19.8750459 C193.885253,19.87623 195.278269,20.1036208 196.609502,20.5486318 L196.609502,20.258734 C196.609502,18.459663 195.495615,17.4364946 193.183455,17.4364946 C191.560227,17.4339281 189.953101,17.7615998 188.457874,18.3999781 L187.217409,14.1367765 C189.415308,13.2074126 191.780072,12.7486969 194.162326,12.7896048 Z M196.693887,24.1041419 L196.660133,23.30266 C195.913745,23.0025671 195.117526,22.8491892 194.314219,22.8507606 C192.567442,22.8507606 191.554817,23.7204538 191.554817,24.9994142 L191.554817,25.0590991 C191.551628,25.6151789 191.788458,26.1450493 192.203448,26.510308 C192.618437,26.8755667 193.170371,27.0399376 193.715083,26.960487 C194.496023,27.0237307 195.266756,26.748578 195.835034,26.2036621 C196.403312,25.6587462 196.715558,24.8954407 196.693887,24.1041419 Z M215.731229,12.7896048 L215.731229,19.158828 L215.224917,19.158828 C212.085781,19.158828 210.305249,20.9834783 210.305249,24.9908878 L210.305249,30.3795747 L204.280133,30.3795747 L204.280133,13.0795025 L210.305249,13.0795025 L210.305249,16.5753279 C211.292558,14.1964614 212.879003,12.6617088 215.731229,12.7896048 Z" id="cards" fill="#00BCF6"></path>
                            <path d="M36.6823256,21.7849602 L36.6823256,21.7252754 C36.6719044,19.2802984 37.6460036,16.9361698 39.3807697,15.2315837 C41.1155358,13.5269976 43.4617837,12.6085437 45.8803322,12.687288 C48.8396587,12.5327511 51.6472064,14.0197733 53.2049834,16.5668015 L49.1207309,19.6107274 C48.4488133,18.4698436 47.2279677,17.7751559 45.9140864,17.7860771 C43.9816611,17.7860771 42.5386711,19.4913578 42.5386711,21.631485 L42.5386711,21.6996962 C42.5386711,23.9421402 43.9310299,25.6388945 45.9647176,25.6388945 C47.2838056,25.6211347 48.5142665,24.9646105 49.2726246,23.873929 L53.2978073,26.8240645 C51.6468438,29.4467221 48.7241759,30.9656454 45.6524917,30.7973684 C43.272635,30.8295353 40.9802204,29.8920155 39.2925007,28.1963481 C37.604781,26.5006806 36.6639615,24.1897403 36.6823256,21.7849602 Z M52.9265116,21.7849602 L52.9265116,21.7252754 C52.9265116,16.7884879 56.9263787,12.6531824 62.4451827,12.6531824 C67.9639867,12.6531824 71.8963455,16.7202767 71.8963455,21.6570642 L71.8963455,21.7252754 C71.8963455,26.6620629 67.8964784,30.7973684 62.3776744,30.7973684 C56.8588704,30.7973684 52.9265116,26.7217477 52.9265116,21.7849602 Z M66.0315615,21.7849602 L66.0315615,21.7252754 C66.0726026,20.7148913 65.709139,19.7303915 65.0232165,18.9940104 C64.337294,18.2576293 63.3867352,17.8314431 62.386113,17.8116563 C61.3964711,17.8122802 60.4508571,18.2251094 59.7721432,18.952844 C59.0934293,19.6805786 58.7416564,20.658841 58.7997342,21.6570642 L58.7997342,21.7252754 C58.7586931,22.7356595 59.1221567,23.7201593 59.8080792,24.4565404 C60.4940017,25.1929215 61.4445605,25.6191077 62.4451827,25.6388945 C63.4349139,25.636064 64.3797044,25.2210501 65.0568374,24.4916846 C65.7339705,23.7623191 66.0835333,22.7831363 66.0231229,21.7849602 L66.0315615,21.7849602 Z M73.0946179,13.0368705 L79.1197342,13.0368705 L79.1197342,15.4072106 C80.2792273,13.707469 82.1821226,12.6809649 84.2250498,12.6531824 C86.2777414,12.5359989 88.2096763,13.6386079 89.1700332,15.4754218 C90.544628,13.6845971 92.6653226,12.6415694 94.9082392,12.6531824 C98.5536877,12.6531824 100.815216,14.9638376 100.815216,18.9968264 L100.815216,30.3795747 L94.7647841,30.3795747 L94.7647841,20.9578991 C94.7647841,19.0650376 93.8449834,18.0759748 92.4188704,18.0759748 C90.9927575,18.0759748 89.9463787,19.073564 89.9463787,20.9578991 L89.9463787,30.3795747 L83.9128239,30.3795747 L83.9128239,20.9578991 C83.9128239,19.0650376 82.9930233,18.0759748 81.5669103,18.0759748 C80.1407973,18.0759748 79.1281728,19.073564 79.1281728,20.9578991 L79.1281728,30.3795747 L73.0946179,30.3795747 L73.0946179,13.0368705 Z M102.561993,13.0368705 L108.58711,13.0368705 L108.58711,15.3475258 C109.780174,13.6408575 111.725829,12.6340037 113.793688,12.6531824 C117.886379,12.6531824 121.388372,16.0637437 121.388372,21.631485 L121.388372,21.6911698 C121.388372,27.3356487 117.869502,30.7632628 113.793688,30.7632628 C111.757028,30.812528 109.817155,29.8862357 108.561794,28.2650267 L108.561794,35.5124694 L102.536678,35.5124694 L102.561993,13.0368705 Z M115.472957,21.7252754 L115.472957,21.6570642 C115.585542,20.3195037 114.942969,19.0319013 113.81165,18.3281011 C112.680331,17.6243009 111.253157,17.6243009 110.121838,18.3281011 C108.99052,19.0319013 108.347946,20.3195037 108.460532,21.6570642 L108.460532,21.7252754 C108.460532,24.0359307 110.013223,25.6644737 111.945648,25.6644737 C113.878073,25.6644737 115.472957,24.0615099 115.472957,21.7252754 Z M121.818738,25.4086816 L121.818738,25.3404704 C121.818738,21.7508546 124.51907,19.8920987 128.569568,19.8920987 C129.971776,19.8931369 131.364815,20.1205314 132.696013,20.5656846 L132.696013,20.2757869 C132.696013,18.4767158 131.582126,17.4535474 129.269967,17.4535474 C127.646738,17.450981 126.039613,17.7786526 124.544385,18.4170309 L123.30392,14.1538293 C125.492823,13.2223279 127.848608,12.7578764 130.223522,12.7896048 C133.303588,12.7896048 135.396346,13.5228755 136.75495,14.9041528 C138.113555,16.2854301 138.594551,17.9821844 138.594551,20.4207357 L138.594551,30.3795747 L132.628505,30.3795747 L132.628505,28.5805036 C131.346364,30.0331375 129.490471,30.8332302 127.565382,30.7632628 C124.324983,30.7632628 121.818738,28.8704013 121.818738,25.4086816 Z M132.729767,24.0956155 L132.729767,23.2941336 C131.98338,22.9940407 131.18716,22.8406628 130.383854,22.8422342 C128.637076,22.8422342 127.624452,23.6948745 127.624452,24.9908878 L127.624452,25.0505727 C127.62504,25.5983576 127.858382,26.1195185 128.265182,26.4816213 C128.671982,26.8437241 129.213075,27.0119076 129.750963,26.9434342 C130.530401,27.0064925 131.29972,26.7324619 131.867704,26.1894539 C132.435688,25.6464458 132.749001,24.8854501 132.729767,24.0956155 Z M140.341329,13.0368705 L146.366445,13.0368705 L146.366445,16.5326958 C147.345316,14.1623557 148.898007,12.6190768 151.792425,12.7469728 L151.792425,19.158828 L151.286113,19.158828 C148.146977,19.158828 146.366445,20.9834783 146.366445,24.9908878 L146.366445,30.3795747 L140.341329,30.3795747 L140.341329,13.0368705 Z M152.585648,21.7849602 L152.585648,21.7252754 C152.585648,16.6605919 156.172027,12.6531824 161.243588,12.6531824 C167.150565,12.6531824 169.901528,17.04428 169.901528,22.1430692 L169.901528,23.3964504 L158.391362,23.3964504 C158.746502,25.1536832 160.333393,26.3744644 162.104319,26.2527955 C163.562178,26.2317282 164.943784,25.5909961 165.9101,24.48783 L169.243322,27.2844903 C167.468215,29.6053502 164.692934,30.9169311 161.792093,30.8058948 C156.391429,30.7973684 152.585648,27.1736471 152.585648,21.7849602 Z M164.256146,20.2757869 C164.036744,18.3488197 162.922857,17.1380705 161.277342,17.1380705 C159.631827,17.1380705 158.610764,18.3914517 158.298538,20.2757869 L164.256146,20.2757869 Z" id="compare" fill="#035B7C"></path>
                            <g id="icon" stroke-width="1">
                                <path d="M27.2733555,41.1143163 L2.43873754,32.4003322 C0.7510299,31.8120104 0.599136213,29.7400944 2.7172093,28.9897709 L18.0753488,23.5840313 C19.8891422,22.8298111 21.9109656,22.760202 23.7713621,23.387924 L27.2564784,24.6157261 C28.1999359,25.0241708 28.8224627,25.9493795 28.8513621,26.9860662 L28.8513621,39.860935 C28.90633,40.277014 28.7377577,40.6911701 28.408985,40.9477871 C28.0802124,41.204404 27.641038,41.2646126 27.2564784,41.1057899" id="Shape" fill="#66D0FF"></path>
                                <path d="M27.2733555,0.937904354 L2.43873754,9.67746765 C1.49255954,10.0871961 0.869500374,11.0165269 0.843853821,12.0563341 L0.843853821,17.0528064 L17.1555482,21.0346367 L27.281794,17.4706002 C28.2252515,17.0621555 28.8477783,16.1369468 28.8766777,15.1002601 L28.8766777,2.18275922 C28.9332889,1.76446305 28.763765,1.3475827 28.4324466,1.09033982 C28.1011283,0.833096949 27.6588052,0.774925744 27.2733555,0.937904354" id="Shape" fill="#79EE44"></path>
                                <path d="M0.843853821,17.0528064 C0.800389474,16.6423152 0.974594939,16.2391281 1.30208128,15.992269 C1.62956762,15.7454099 2.06169304,15.691545 2.43873754,15.8505836 L17.1471096,21.0346367 L2.43873754,26.2016371 C2.05417799,26.3604598 1.61500355,26.3002512 1.2862309,26.0436342 C0.957458241,25.7870173 0.788885935,25.3728612 0.843853821,24.9567822 L0.843853821,17.0528064 Z" id="Shape" fill="#00B988"></path>
                            </g>
                        </g>
                    </g>
                </g>
            </g>
        </g>
    </g>
</svg>