<?xml version="1.0" encoding="UTF-8"?>
<svg width="277px" height="36px" viewBox="0 0 277 36" version="1.1" xmlns="http://www.w3.org/2000/svg" xmlns:xlink="http://www.w3.org/1999/xlink">
    <!-- Generator: Sketch 50.2 (55047) - http://www.bohemiancoding.com/sketch -->
    <title>logos/deposit-accounts</title>
    <desc>Created with Sketch.</desc>
    <defs></defs>
    <g id="Page-1" stroke="none" stroke-width="1" fill="none" fill-rule="evenodd">
        <g id="D---About-Hub" transform="translate(-554.000000, -3269.000000)">
            <g id="Group-9" transform="translate(239.000000, 3099.000000)">
                <g id="Group-14" transform="translate(0.000000, 158.000000)">
                    <g id="Group-13">
                        <g id="logos/deposit-accounts" transform="translate(315.000000, 12.000000)">
                            <path d="M150.647679,28.8729678 C150.276334,28.9873207 149.880316,29.0917457 149.464109,29.1854029 C148.588236,29.3819138 147.669218,29.4810312 146.772635,29.4810312 C145.045916,29.4810312 143.705788,29.0638764 142.867021,28.2399097 C142.026529,27.4159429 141.51999,26.0765659 141.51999,24.2562544 L141.51999,16.8069398 L138.931205,16.8069398 L138.931205,12.4974901 L141.51999,12.4974901 L141.51999,9.43002388 L146.69756,8.05617134 L146.69756,12.4974901 L151.012202,12.4974901 L151.012202,16.8069398 L146.69756,16.8069398 L146.69756,22.3445826 C146.69756,23.382298 146.986641,24.1226615 147.204962,24.5432638 C147.318869,24.7621838 147.730486,25.0535026 148.444127,25.0535026 C148.883358,25.0535026 149.263046,25.0147175 149.574564,24.9371475 C149.758896,24.8915132 150.52651,24.6329581 151.197408,24.3983011 L158.657402,5.60193977 L162.756312,5.60193977 L171.991371,28.8729678 L166.066505,28.8729678 L164.082633,23.7016282 L156.982458,23.7016282 L155.104726,28.8729678 L150.647679,28.8729678 Z M61.2716234,8.91944029 C62.2769349,9.95543198 63.022505,11.2051724 63.4876234,12.6359097 C63.9467012,14.050271 64.1796919,15.6223583 64.1796919,17.3099387 C64.1796919,18.8484123 63.9596452,20.3549958 63.5247293,21.7857331 C63.0854988,23.2362939 62.3416545,24.5403333 61.3147698,25.6607902 C60.2896109,26.7812471 58.9253212,27.6922648 57.2607324,28.3697103 C55.603047,29.0437082 53.5337449,29.3850166 51.1097791,29.3850166 C50.7275019,29.3850166 50.2226888,29.3746739 49.5918882,29.3531267 C48.9628134,29.3315794 48.3156171,29.3057227 47.6399442,29.2738328 C46.9659972,29.2419429 46.3282931,29.2091911 45.7138882,29.1773011 C45.0943056,29.1462731 44.6309131,29.1074881 44.3116296,29.0626698 L44.0096047,29.0178515 L44.0096047,6.01314746 L44.3150813,5.97091485 C44.8078134,5.90713499 45.3393773,5.85455971 45.9943399,5.80887954 C46.6251405,5.76664694 47.2740626,5.73389512 47.9411062,5.71320976 C48.6038352,5.69166251 49.2501685,5.6752866 49.8783804,5.66494393 C50.5065922,5.65460125 51.0700844,5.64856802 51.5679941,5.64856802 C53.7986639,5.64856802 55.7376639,5.93471547 57.3323555,6.49925337 C58.939991,7.06896262 60.2654489,7.8834486 61.2716234,8.91944029 Z M51.6749972,24.7351205 C52.9814707,24.7351205 54.0756639,24.527405 54.9299629,24.119731 C55.7782215,23.712919 56.4573461,23.1682046 56.9483523,22.5011018 C57.446262,21.8245182 57.7991997,21.0315794 57.9985361,20.142109 C58.2039131,19.2285057 58.3057386,18.2752555 58.3057386,17.3099387 C58.3057386,16.4713198 58.2065019,15.6137394 58.024424,14.7613302 C57.8466607,13.9356397 57.5040782,13.1849335 57.0303305,12.5307591 C56.5600346,11.881756 55.8834988,11.3422129 55.0680315,10.9267819 C54.2517012,10.5096272 53.1402495,10.2984642 51.8613897,10.2984642 C51.3462215,10.2984642 50.7283648,10.3096687 50.2019785,10.3303541 C49.8757916,10.3441443 50.0501031,10.3605202 49.1871748,10.3820675 L49.1871748,24.6497934 C49.1871748,24.6515171 49.4546826,24.6541028 49.4952402,24.6558266 L51.159829,24.7196064 C51.3893679,24.730811 51.5602277,24.7351205 51.6749972,24.7351205 Z M78.8765698,13.339729 C79.5858969,13.8628962 80.1614701,14.5661983 80.5877567,15.4453261 C81.0140433,16.32273 81.2289125,17.4095732 81.2289125,18.6937892 C81.2289125,19.1471433 81.19871,19.627216 81.138305,20.1538307 C81.0787629,20.6675171 80.9881555,21.1803416 80.8673455,21.7474652 L80.8034888,21.9784517 L70.3076913,21.9784517 C70.4207349,22.8403416 70.7572769,23.8823666 71.3095511,24.4227715 C71.9265449,25.0269564 72.9715511,25.4044642 74.4160931,25.4044642 C75.3351118,25.4044642 76.1661118,25.2777664 76.886657,25.0269564 C77.6149685,24.7744226 78.1724202,24.5175794 78.5434794,24.2615981 L78.8886508,24.0228546 L80.7801897,27.3937061 L80.5031897,27.5928027 C79.7610713,28.1263126 78.7497193,28.5796667 77.4967474,28.9399367 C76.2515417,29.2993448 74.9096882,29.4812035 73.5100184,29.4812035 C70.5493112,29.4812035 68.3419405,28.6822316 66.9491741,27.104973 C65.5684888,25.5432285 64.8686539,23.3841942 64.8686539,20.6873406 C64.8686539,17.787081 65.6608221,15.571162 67.2218595,14.1007778 C68.7768564,12.6364268 70.9755978,11.8943396 73.7576788,11.8943396 C74.6818751,11.8943396 75.5948533,12.0046615 76.4733143,12.2244434 C77.3698969,12.4485348 78.1784607,12.8234569 78.8765698,13.339729 Z M73.7024514,15.9710789 C72.623791,15.9710789 71.8229935,16.1322523 71.3259467,16.6916189 C70.8815386,17.1906532 70.5855542,17.6690021 70.4405822,18.530892 L76.1971773,18.530892 C76.2213393,17.6690021 76.0461648,17.0984309 75.6759685,16.6252534 C75.2660776,16.1020862 74.6206072,15.9710789 73.7024514,15.9710789 Z M92.3319526,11.8941672 C94.6566816,11.8941672 96.4351769,12.5750602 97.6165259,13.9196085 C98.7857938,15.2495047 99.3777626,17.3869917 99.3777626,20.2734611 C99.3777626,21.6671371 99.192233,22.9444579 98.8272143,24.0709481 C98.457881,25.2103666 97.8995664,26.1955067 97.168666,26.9987882 C96.434314,27.8037934 95.5273763,28.4260779 94.4754667,28.8484039 C93.4278717,29.2681443 92.2145944,29.4810312 90.8744667,29.4810312 C90.1185414,29.4810312 89.4808374,29.4301796 88.9872424,29.3293385 C88.6688218,29.2655587 88.0190368,29.1750602 88.0190368,29.059567 L88.0190368,35.7685182 L82.8414667,35.7685182 L82.8414667,12.4974901 L86.7022081,12.4974901 L87.1517938,14.0342399 C87.7213265,13.4016127 88.377152,12.8344891 89.1071894,12.5017996 C89.9925539,12.0984351 91.0772548,11.8941672 92.3319526,11.8941672 Z M93.8645134,20.1777913 C93.8645134,18.8608235 93.6220305,17.8394839 93.1482829,17.142215 C92.6995601,16.4820073 91.9772891,16.1613842 90.9452268,16.1613842 C90.1409776,16.1613842 89.5067252,16.3372098 89.0700835,16.6845514 C88.6334417,17.0310312 88.0190368,17.5636791 88.0190368,18.2678432 L88.0190368,24.6268671 C88.0190368,24.7897643 88.5600928,24.9242191 88.8534885,25.0276459 C89.1995227,25.1508962 89.6836255,25.2129522 90.2764573,25.2129522 C91.4871458,25.2129522 92.3630181,24.8483728 92.954124,24.0993904 C93.5581738,23.3331703 93.8645134,22.0136168 93.8645134,20.1777913 Z M115.190666,14.3254725 C115.911211,15.0960021 116.457445,16.0380478 116.816423,17.1274766 C117.170223,18.2031153 117.349712,19.4002804 117.349712,20.687082 C117.349712,23.4778816 116.579117,25.6644964 115.057775,27.186594 C113.537295,28.7095535 111.376522,29.4818069 108.637588,29.4818069 C107.180102,29.4818069 105.893476,29.26892 104.813089,28.8500415 C103.724937,28.4277155 102.801603,27.8235306 102.068977,27.0521391 C101.335488,26.2816096 100.781488,25.3378401 100.423373,24.2475493 C100.069572,23.1762201 99.8900832,21.9773313 99.8900832,20.687082 C99.8900832,17.8971443 100.667582,15.7105296 102.200142,14.1875701 C103.732703,12.6654725 105.898653,11.894081 108.637588,11.894081 C110.094211,11.894081 111.380837,12.1061059 112.462086,12.5249844 C113.551102,12.9481724 114.468395,13.554081 115.190666,14.3254725 Z M111.026174,24.1863551 C111.563778,23.4718484 111.8356,22.2945067 111.8356,20.687082 C111.8356,19.2994393 111.580174,18.1703634 111.07536,17.3308827 C110.60075,16.5439772 109.803404,16.161298 108.637588,16.161298 C107.613292,16.161298 106.839245,16.4922638 106.272301,17.171433 C105.696728,17.8626687 105.404195,19.0460436 105.404195,20.687082 C105.404195,21.3559086 105.471504,21.9799169 105.606121,22.542731 C105.737286,23.0926168 105.935759,23.5787227 106.195501,23.9881205 C106.442298,24.3759709 106.769348,24.6802181 107.168021,24.8913811 C107.571871,25.1051298 108.065466,25.212866 108.637588,25.212866 C109.72574,25.212866 110.506691,24.8775909 111.026174,24.1863551 Z M129.151466,19.8386376 C129.784855,20.2376926 130.323322,20.7625836 130.753061,21.3977965 C131.196606,22.0545566 131.42183,22.8983468 131.42183,23.9058962 C131.42183,25.6339855 130.795344,27.0147331 129.560494,28.010216 C128.349805,28.9858754 126.534204,29.4814621 124.162877,29.4814621 C122.88488,29.4814621 121.665562,29.3323551 120.539441,29.0384507 C119.413319,28.7445462 118.483083,28.3946189 117.773755,27.9990114 L117.477771,27.8335286 L119.040534,24.0472461 L119.409005,24.2351381 C119.930213,24.5006002 120.636089,24.7652004 121.506783,25.0220436 C122.363671,25.2763011 123.257665,25.4047227 124.162877,25.4047227 C124.778145,25.4047227 125.269151,25.3030197 125.622952,25.1030613 C125.806755,24.9996345 126.050101,24.799676 126.050101,24.2566854 C126.050101,23.9645047 125.914621,23.742999 125.624678,23.5585545 C125.247578,23.319811 124.772104,23.0965815 124.210338,22.8940374 C123.62441,22.6837362 122.979802,22.4674019 122.276516,22.2458962 C121.534397,22.0131859 120.84578,21.6873915 120.22965,21.27627 C119.597986,20.8556677 119.061245,20.3161246 118.634095,19.6714309 C118.192276,19.0069138 117.967914,18.1476096 117.967914,17.1193749 C117.967914,15.4326563 118.540899,14.1208598 119.671335,13.2201848 C120.774157,12.3401952 122.369712,11.8937362 124.4114,11.8937362 C125.779142,11.8937362 127.036428,12.0264673 128.149606,12.286758 C129.261921,12.5479107 130.150737,12.8478484 130.790167,13.179676 L131.081836,13.3313686 L129.822824,17.001296 L129.459531,16.8737362 C128.936597,16.6892918 128.255746,16.4884714 127.435101,16.2773084 C126.641207,16.0739024 125.82574,15.9713375 125.013724,15.9713375 C123.339643,15.9713375 123.339643,16.7082534 123.339643,17.0228432 C123.339643,17.1753977 123.38279,17.4020748 123.752986,17.6175472 C124.129223,17.8373292 124.606422,18.0467684 125.172503,18.2398318 C125.761883,18.441514 126.410805,18.6587103 127.118407,18.8905587 C127.851033,19.1327497 128.535335,19.451649 129.151466,19.8386376 Z M137.992253,6.35100831 C138.642038,6.86124714 138.971677,7.49301246 138.971677,8.22820457 C138.971677,8.96856802 138.639449,9.59171443 137.98535,10.0795441 C137.364904,10.542379 136.554614,10.7768131 135.576917,10.7768131 C134.592315,10.7768131 133.801873,10.5389315 133.2263,10.0692015 C132.626564,9.58223364 132.323677,8.96253479 132.323677,8.22820457 C132.323677,7.49990758 132.624839,6.87158982 133.218533,6.36221288 C133.795832,5.86748806 134.589726,5.61667809 135.576917,5.61667809 C136.557203,5.61667809 137.369219,5.8640405 137.992253,6.35100831 Z M132.890966,28.8733126 L132.890966,12.4974039 L138.068536,12.4974039 L138.068536,28.8733126 L132.890966,28.8733126 Z M160.602443,13.1581288 L160.141639,15.5628017 L158.50639,20.2540685 L162.727835,20.2540685 L161.075327,15.5843489 L160.602443,13.1581288 Z M183.001474,24.1842866 L183.408776,23.9403718 L184.716975,27.822324 L184.471904,27.9843593 C183.732374,28.4730509 182.826299,28.8496968 181.781293,29.1039543 C180.750094,29.3547643 179.675748,29.4814621 178.590184,29.4814621 C177.129246,29.4814621 175.869371,29.2677134 174.846801,28.8471111 C173.813013,28.4221994 172.957851,27.8119813 172.305477,27.0345566 C171.657418,26.2614413 171.185396,25.3150862 170.90063,24.2247954 C170.621041,23.1586376 170.480383,21.9683676 170.480383,20.6875992 C170.480383,17.9028328 171.194025,15.7205275 172.601461,14.1992918 C174.01839,12.6694372 176.092869,11.8937362 178.767947,11.8937362 C180.088228,11.8937362 181.174655,11.9937155 181.994436,12.1910883 C182.809041,12.3884611 183.554611,12.6435805 184.209574,12.9495514 L184.515913,13.0917632 L183.184415,17.1883261 L182.800412,17.0228432 C182.27834,16.7996137 181.756268,16.6246501 181.248003,16.5022617 C180.747505,16.3815971 180.16244,16.3212648 179.511792,16.3212648 C178.340798,16.3212648 177.483047,16.648783 176.891941,17.3227809 C176.295658,18.0019502 175.994496,19.1344735 175.994496,20.6875992 C175.994496,21.3297072 176.073022,21.9269969 176.226623,22.4622305 C176.378499,22.9871215 176.607175,23.4482326 176.905748,23.8309117 C177.196555,24.2058339 177.585736,24.5057715 178.057757,24.7221059 C178.536683,24.9427497 179.108804,25.0539335 179.759452,25.0539335 C180.494667,25.0539335 181.121153,24.9694683 181.62424,24.8031236 C182.137683,24.6324694 182.601075,24.4247539 183.001474,24.1842866 Z M196.684497,24.1842866 L197.090936,23.9403718 L198.399136,27.822324 L198.154064,27.9843593 C197.414535,28.4730509 196.509323,28.8496968 195.464317,29.1039543 C194.433117,29.3547643 193.358771,29.4814621 192.272345,29.4814621 C190.811407,29.4814621 189.551531,29.2677134 188.528961,28.8471111 C187.495173,28.4221994 186.640011,27.8119813 185.987637,27.0345566 C185.340441,26.2614413 184.867556,25.3150862 184.583653,24.2247954 C184.304064,23.1586376 184.162544,21.9683676 184.162544,20.6875992 C184.162544,17.9028328 184.877049,15.7205275 186.284485,14.1992918 C187.701413,12.6694372 189.77503,11.8937362 192.450108,11.8937362 C193.770388,11.8937362 194.856815,11.9937155 195.676597,12.1910883 C196.491201,12.3884611 197.237634,12.6435805 197.892597,12.9495514 L198.198074,13.0917632 L196.867438,17.1883261 L196.482572,17.0228432 C195.9605,16.7996137 195.439292,16.6246501 194.931027,16.5022617 C194.429665,16.3815971 193.8446,16.3212648 193.193952,16.3212648 C192.023821,16.3212648 191.16607,16.648783 190.574102,17.3227809 C189.978681,18.0019502 189.676656,19.1344735 189.676656,20.6875992 C189.676656,21.3297072 189.755183,21.9269969 189.908784,22.4622305 C190.060659,22.9871215 190.289335,23.4482326 190.588771,23.8309117 C190.879578,24.2058339 191.267896,24.5057715 191.740781,24.7221059 C192.218843,24.9427497 192.790964,25.0539335 193.441612,25.0539335 C194.176827,25.0539335 194.803313,24.9694683 195.307264,24.8031236 C195.820706,24.6324694 196.283236,24.4247539 196.684497,24.1842866 Z M213.146495,14.3246106 C213.865314,15.0942783 214.412411,16.0371859 214.771389,17.1274766 C215.12519,18.2013915 215.304679,19.3994185 215.304679,20.687082 C215.304679,23.4778816 214.534084,25.6644964 213.011878,27.186594 C211.492261,28.7095535 209.331489,29.4818069 206.592554,29.4818069 C205.135931,29.4818069 203.848442,29.26892 202.768056,28.8500415 C201.679903,28.4277155 200.75657,27.8235306 200.023944,27.0521391 C199.290455,26.2807477 198.737317,25.3369782 198.378339,24.2475493 C198.024539,23.1727726 197.845912,21.9747456 197.845912,20.687082 C197.845912,17.8980062 198.622548,15.7105296 200.155109,14.1875701 C201.688532,12.6654725 203.85362,11.894081 206.592554,11.894081 C208.05004,11.894081 209.336666,12.1061059 210.417053,12.5249844 C211.506068,12.9473105 212.422498,13.5532191 213.146495,14.3246106 Z M208.982003,24.1863551 C209.519607,23.4709865 209.79143,22.2936449 209.79143,20.687082 C209.79143,19.301163 209.536003,18.1712253 209.030327,17.3308827 C208.557442,16.5439772 207.760096,16.161298 206.592554,16.161298 C205.568258,16.161298 204.794212,16.4922638 204.228131,17.171433 C203.650831,17.8626687 203.359162,19.0460436 203.359162,20.687082 C203.359162,21.3541848 203.427333,21.9773313 203.56195,22.542731 C203.693115,23.0943406 203.891588,23.5813084 204.149604,23.9881205 C204.397264,24.3759709 204.723451,24.6802181 205.122987,24.8913811 C205.526838,25.1051298 206.020433,25.212866 206.592554,25.212866 C207.680707,25.212866 208.460794,24.8775909 208.982003,24.1863551 Z M232.433634,26.3330644 C232.524241,27.1475504 232.746877,27.8137913 232.929818,28.4696895 L233.148139,28.873054 L228.899942,28.873054 L228.188026,26.8907072 C227.650422,27.5431578 226.961805,28.1835421 226.132531,28.637758 C225.111687,29.1971246 223.896684,29.4815483 222.515136,29.4815483 C221.584899,29.4815483 220.742681,29.3677788 220.001425,29.1462731 C219.23083,28.9161485 218.592263,28.528298 218.077095,27.9939263 C217.563653,27.463864 217.195182,26.7459097 216.930263,25.8633344 C216.672248,24.9997207 216.595447,23.9120156 216.595447,22.6312471 L216.595447,12.4971454 L221.773017,12.4971454 L221.773017,21.771081 C221.773017,22.9906552 221.954232,23.8680592 222.260572,24.3791599 C222.530668,24.8333759 223.105379,25.0540197 223.963129,25.0540197 C224.744079,25.0540197 225.361936,24.8463043 225.867612,24.4377684 C226.374151,24.0283707 226.950587,23.5233032 226.950587,22.9354943 L226.950587,12.4971454 L232.128157,12.4971454 L232.128157,23.8103126 C232.128157,24.6592741 232.341301,25.5073738 232.433634,26.3330644 Z M249.36774,13.3807549 C249.882045,13.9116791 250.380818,14.6365286 250.634519,15.533756 C250.878727,16.4034029 251.111718,17.483351 251.111718,18.744296 L251.111718,28.8732264 L245.934148,28.8732264 L245.934148,19.6044621 C245.934148,18.3978162 245.524257,17.5281693 245.160964,17.0231018 C244.820107,16.5507861 244.005503,16.3215234 243.135671,16.3215234 C242.340051,16.3215234 241.654023,16.519758 241.11383,16.9291558 C240.590033,17.326487 239.89365,17.8212118 239.89365,18.4021256 L239.89365,28.8732264 L234.716079,28.8732264 L234.716079,12.4973178 L239.004833,12.4973178 L239.462185,14.2305784 C239.979079,13.6910353 240.613332,13.1290831 241.354587,12.7084808 C242.305534,12.1680758 243.537796,11.8939948 245.015992,11.8939948 C245.924656,11.8939948 246.749615,12.0069024 247.47016,12.2301319 C248.214868,12.4611184 248.852572,12.8489688 249.36774,13.3807549 Z M274.676652,19.8386376 C275.310041,20.2385545 275.848508,20.7625836 276.27911,21.3977965 C276.721792,22.0536947 276.946153,22.8974849 276.946153,23.9058962 C276.946153,25.6339855 276.32053,27.0147331 275.086543,28.010216 C273.874128,28.9858754 272.05939,29.4814621 269.689789,29.4814621 C268.410929,29.4814621 267.191611,29.3323551 266.06549,29.0384507 C265.246571,28.8238401 264.534655,28.5799252 263.931468,28.3110156 L263.940097,28.3325628 L263.647564,28.4618463 C262.993465,28.7454081 262.229773,28.9893229 261.355627,29.184972 C260.480617,29.3814829 259.602156,29.4814621 258.706437,29.4814621 C256.978854,29.4814621 255.719842,29.0634455 254.882801,28.2403406 C254.043172,27.4163738 253.700589,26.0769969 253.700589,24.2566854 L253.700589,16.8065088 L251.111804,16.8065088 L251.111804,12.4970592 L253.700589,12.4970592 L253.700589,9.43045483 L258.87816,8.05574039 L258.87816,12.4970592 L263.192801,12.4970592 L263.192801,16.8065088 L258.87816,16.8065088 L258.87816,22.3441516 C258.87816,23.3818671 259.002421,24.1222305 259.220742,24.5436947 C259.334649,24.7617529 259.582309,25.0539335 260.295088,25.0539335 C260.734318,25.0539335 261.11487,25.0142866 261.42725,24.9375784 C261.751711,24.8565607 262.121907,24.7333105 262.528346,24.5712752 L262.93306,24.4101018 L263.499141,26.6286064 L264.56572,24.0472461 L264.934191,24.2351381 C265.455399,24.4997383 266.160412,24.7652004 267.031107,25.0220436 C267.88972,25.2763011 268.782851,25.4047227 269.688926,25.4047227 C270.303331,25.4047227 270.794337,25.3030197 271.149001,25.1030613 C271.331941,25.0004964 271.573561,24.8005379 271.573561,24.2566854 C271.573561,23.9645047 271.438945,23.742999 271.149001,23.5585545 C270.772764,23.319811 270.29729,23.0965815 269.735524,22.8948993 C269.149596,22.6837362 268.504988,22.4674019 267.801702,22.2458962 C267.05872,22.0131859 266.370103,21.6865296 265.754836,21.2754081 C265.124898,20.8573915 264.588156,20.3169865 264.159281,19.6714309 C263.718325,19.0077757 263.4931,18.1484714 263.4931,17.1193749 C263.4931,15.4326563 264.066085,14.1208598 265.196521,13.2201848 C266.300206,12.3401952 267.894898,11.8937362 269.936586,11.8937362 C271.305191,11.8937362 272.562477,12.0264673 273.673929,12.286758 C274.786244,12.5479107 275.67506,12.8478484 276.31449,13.179676 L276.60616,13.3313686 L275.347147,17.001296 L274.983854,16.8737362 C274.456605,16.687568 273.795602,16.491919 272.960287,16.2773084 C272.16553,16.0739024 271.350926,15.9713375 270.53891,15.9713375 C268.865692,15.9713375 268.865692,16.7082534 268.865692,17.0228432 C268.865692,17.1883261 268.911427,17.4055223 269.277309,17.6175472 C269.654409,17.8373292 270.132471,18.0467684 270.698552,18.2398318 C271.286206,18.441514 271.935128,18.6587103 272.644455,18.8905587 C273.374493,19.1327497 274.058795,19.4507871 274.676652,19.8386376 Z" id="Name" fill="#1F548B"></path>
                            <g id="Mark" stroke-width="1">
                                <path d="M31.9283489,34.4755971 L2.58878505,34.4755971 C1.15891277,34.4755971 0,33.3180789 0,31.8899273 L0,2.58566978 C0,1.15751817 1.15891277,0 2.58878505,0 L31.9283489,0 C33.3582212,0 34.517134,1.15751817 34.517134,2.58566978 L34.517134,31.8899273 C34.517134,33.3180789 33.3582212,34.4755971 31.9283489,34.4755971" id="Fill-24" fill="#2C95D2"></path>
                                <path d="M19.847352,20.2544133 L14.6697819,20.2544133 C14.1934455,20.2544133 13.8068536,19.8682866 13.8068536,19.3925234 L13.8068536,15.0830737 C13.8068536,14.6073105 14.1934455,14.2211838 14.6697819,14.2211838 L19.847352,14.2211838 C20.3236885,14.2211838 20.7102804,14.6073105 20.7102804,15.0830737 L20.7102804,19.3925234 C20.7102804,19.8682866 20.3236885,20.2544133 19.847352,20.2544133 Z M29.3395639,20.2544133 L24.1619938,20.2544133 C23.6856573,20.2544133 23.2990654,19.8682866 23.2990654,19.3925234 L23.2990654,15.0830737 C23.2990654,14.6073105 23.6856573,14.2211838 24.1619938,14.2211838 L29.3395639,14.2211838 C29.8159003,14.2211838 30.2024922,14.6073105 30.2024922,15.0830737 L30.2024922,19.3925234 C30.2024922,19.8682866 29.8159003,20.2544133 29.3395639,20.2544133 Z M19.847352,29.7352025 L14.6697819,29.7352025 C14.1934455,29.7352025 13.8068536,29.3490758 13.8068536,28.8733126 L13.8068536,24.5638629 C13.8068536,24.0880997 14.1934455,23.701973 14.6697819,23.701973 L19.847352,23.701973 C20.3236885,23.701973 20.7102804,24.0880997 20.7102804,24.5638629 L20.7102804,28.8733126 C20.7102804,29.3490758 20.3236885,29.7352025 19.847352,29.7352025 Z M10.3551402,29.7352025 L5.17757009,29.7352025 C4.70123364,29.7352025 4.31464174,29.3490758 4.31464174,28.8733126 L4.31464174,24.5638629 C4.31464174,24.0880997 4.70123364,23.701973 5.17757009,23.701973 L10.3551402,23.701973 C10.8314766,23.701973 11.2180685,24.0880997 11.2180685,24.5638629 L11.2180685,28.8733126 C11.2180685,29.3490758 10.8314766,29.7352025 10.3551402,29.7352025 Z M29.3395639,29.7352025 L24.1619938,29.7352025 C23.6856573,29.7352025 23.2990654,29.3490758 23.2990654,28.8733126 L23.2990654,24.5638629 C23.2990654,24.0880997 23.6856573,23.701973 24.1619938,23.701973 L29.3395639,23.701973 C29.8159003,23.701973 30.2024922,24.0880997 30.2024922,24.5638629 L30.2024922,28.8733126 C30.2024922,29.3490758 29.8159003,29.7352025 29.3395639,29.7352025 Z" id="White-Rectangles" fill="#FFFFFF"></path>
                                <path d="M29.3395639,10.7736241 L24.1619938,10.7736241 C23.6856573,10.7736241 23.2990654,10.3874974 23.2990654,9.91173416 L23.2990654,5.60228453 C23.2990654,5.12652129 23.6856573,4.7403946 24.1619938,4.7403946 L29.3395639,4.7403946 C29.8159003,4.7403946 30.2024922,5.12652129 30.2024922,5.60228453 L30.2024922,9.91173416 C30.2024922,10.3874974 29.8159003,10.7736241 29.3395639,10.7736241" id="Yellow-Rectangle" fill="#FFBA1A"></path>
                            </g>
                        </g>
                    </g>
                </g>
            </g>
        </g>
    </g>
</svg>