<svg xmlns="http://www.w3.org/2000/svg" xmlns:xlink="http://www.w3.org/1999/xlink" width="451" height="58" viewBox="0 0 451 58">
    <defs>
        <path id="a" d="M0 58h451V0H0z"/>
    </defs>
    <g fill="none" fill-rule="evenodd">
        <path fill="#1F548B" d="M84.541 40.359c2.138 0 3.928-.339 5.326-1.011 1.387-.669 2.499-1.562 3.302-2.66.815-1.111 1.392-2.414 1.718-3.875.336-1.501.503-3.066.503-4.652 0-1.38-.163-2.788-.46-4.187a9.741 9.741 0 0 0-1.627-3.667c-.77-1.065-1.875-1.952-3.21-2.635-1.336-.685-3.154-1.03-5.247-1.03-.843 0-1.854.018-2.715.05-.533.024-.248.051-1.66.086v23.44c0 .005.438.008.504.01l2.723.105c.376.019.655.026.843.026zm15.701-25.985c1.644 1.704 2.865 3.757 3.626 6.106.75 2.325 1.132 4.908 1.132 7.68 0 2.529-.36 5.002-1.07 7.353a16.405 16.405 0 0 1-3.617 6.367c-1.678 1.84-3.908 3.339-6.633 4.45C90.968 47.438 87.582 48 83.616 48c-.625 0-1.45-.018-2.483-.052a246.433 246.433 0 0 1-3.193-.13 952.382 952.382 0 0 1-3.152-.16c-1.013-.052-1.77-.115-2.294-.188L72 47.397V9.6l.501-.07c.805-.105 1.675-.19 2.748-.267a85.36 85.36 0 0 1 3.183-.155A197.48 197.48 0 0 1 84.368 9c3.648 0 6.822.472 9.43 1.398 2.63.936 4.798 2.274 6.444 3.976zM120.579 25.723c1.515 0 2.58.216 3.255 1.08.613.78.902 1.72.86 3.141h-9.498c.237-1.42.727-2.21 1.46-3.032.821-.923 2.141-1.189 3.923-1.189m8.539-4.338c-1.152-.852-2.487-1.47-3.966-1.84A18.428 18.428 0 0 0 120.67 19c-4.591 0-8.22 1.225-10.786 3.64C107.307 25.064 106 28.716 106 33.5c0 4.447 1.155 8.007 3.434 10.582 2.297 2.6 5.941 3.918 10.827 3.918 2.31 0 4.525-.3 6.58-.891 2.066-.596 3.737-1.343 4.961-2.223l.456-.327-3.12-5.56-.57.395c-.612.422-1.532.847-2.734 1.263-1.19.412-2.562.621-4.079.621-2.382 0-4.107-.623-5.125-1.619-.912-.89-1.467-2.609-1.654-4.03h17.32l.107-.381c.2-.935.35-1.78.446-2.628.101-.868.151-1.66.151-2.407 0-2.118-.356-3.91-1.058-5.356-.704-1.45-1.654-2.61-2.824-3.472M152.884 32.805c0 2.967-.497 5.099-1.477 6.337-.959 1.21-2.38 1.8-4.344 1.8-.962 0-1.747-.1-2.309-.3-.476-.167-1.353-.383-1.353-.649V29.718c0-1.14.998-1.997 1.705-2.559.708-.56 1.737-.845 3.042-.845 1.676 0 2.846.518 3.574 1.585.769 1.127 1.162 2.777 1.162 4.906m-2.486-13.388c-2.036 0-3.796.331-5.232.983-1.184.538-2.248 1.454-3.172 2.476l-.73-2.483h-6.263V58h8.4V47.16c0 .185 1.054.331 1.57.434.801.163 1.836.245 3.062.245 2.176 0 4.143-.344 5.842-1.022 1.707-.683 3.178-1.687 4.37-2.99 1.186-1.297 2.091-2.89 2.69-4.73.593-1.821.894-3.885.894-6.138 0-4.664-.96-8.119-2.858-10.268-1.916-2.173-4.802-3.274-8.573-3.274M180.859 39.268c-.833 1.142-2.086 1.693-3.83 1.693-.918 0-1.711-.178-2.357-.53a4.158 4.158 0 0 1-1.56-1.488c-.418-.674-.736-1.478-.945-2.383a13.574 13.574 0 0 1-.325-3.061c0-2.708.469-4.658 1.393-5.796.91-1.121 2.15-1.665 3.793-1.665 1.87 0 3.149.63 3.91 1.93.81 1.38 1.219 3.243 1.219 5.53 0 2.652-.436 4.594-1.298 5.77m6.679-16.259c-1.159-1.273-2.631-2.27-4.376-2.967-1.734-.692-3.798-1.042-6.134-1.042-4.392 0-7.866 1.273-10.323 3.782-2.458 2.51-3.705 6.116-3.705 10.717 0 2.128.288 4.104.855 5.87.575 1.8 1.462 3.356 2.64 4.625 1.174 1.273 2.655 2.27 4.399 2.964 1.734.691 3.797 1.042 6.134 1.042 4.393 0 7.857-1.273 10.296-3.785C189.763 41.707 191 38.102 191 33.5c0-2.122-.288-4.096-.855-5.868-.576-1.797-1.452-3.351-2.607-4.622M210.255 32.1a15.297 15.297 0 0 0-3.355-1.562 293.92 293.92 0 0 1-3.208-1.074c-.932-.318-1.72-.664-2.343-1.026-.609-.354-.68-.73-.68-.98 0-.52 0-1.735 2.761-1.735 1.34 0 2.685.17 3.994.505 1.354.348 2.477.68 3.34.982l.599.212 2.076-6.052-.48-.251c-1.057-.546-2.522-1.04-4.356-1.471-1.836-.43-3.91-.648-6.166-.648-3.37 0-6 .736-7.819 2.187-1.864 1.485-2.81 3.648-2.81 6.43 0 1.695.37 3.112 1.1 4.207a9.384 9.384 0 0 0 2.631 2.647 13.239 13.239 0 0 0 3.375 1.6c1.161.364 2.225.72 3.192 1.069.926.332 1.71.7 2.332 1.094.478.304.702.67.702 1.151 0 .895-.403 1.225-.705 1.396-.584.33-1.393.497-2.408.497-1.493 0-2.968-.212-4.383-.631-1.435-.424-2.599-.86-3.459-1.298l-.607-.31L191 45.284l.488.273c1.17.652 2.705 1.229 4.562 1.714 1.858.484 3.869.73 5.977.73 3.911 0 6.906-.816 8.903-2.427 2.037-1.64 3.07-3.917 3.07-6.766 0-1.662-.371-3.053-1.103-4.136a8.92 8.92 0 0 0-2.642-2.57M224.38 10.14C223.348 9.385 222.004 9 220.38 9c-1.633 0-2.945.389-3.9 1.156-.983.79-1.481 1.763-1.481 2.893 0 1.137.501 2.098 1.492 2.853.954.728 2.262 1.098 3.89 1.098 1.619 0 2.96-.365 3.986-1.082 1.082-.756 1.632-1.72 1.632-2.869 0-1.14-.545-2.118-1.62-2.91"/>
        <mask id="b" fill="#fff">
            <use xlink:href="#a"/>
        </mask>
        <path fill="#1F548B" d="M216 47h8V20h-8zM247.938 39.108c-.721.285-3.83 1.347-4.329 1.47-.517.126-1.144.192-1.872.192-1.179 0-1.86-.479-2.048-.836-.362-.686-.84-1.897-.84-3.592v-9.047h7.139v-7.04h-7.139V13l-8.566 2.246v5.01H226v7.04h4.283v12.17c0 2.972.838 5.162 2.227 6.506C233.9 47.32 236.117 48 238.973 48a20.84 20.84 0 0 0 4.452-.482c1.446-.322 2.744-.719 3.826-1.182l.314-.133L249 38.688l-1.062.42z" mask="url(#b)"/>
        <path fill="#1F548B" d="M261.328 21.339l.775 3.96 2.71 7.627h-6.921l2.68-7.66.756-3.927zM258.14 9L243 47h9.315l3.079-8.444h11.64L270.285 47H280L264.86 9h-6.72zM298.229 39.266a10.99 10.99 0 0 1-2.225 1.019c-.813.275-1.825.415-3.013.415-1.051 0-1.976-.184-2.75-.548-.762-.356-1.39-.85-1.86-1.47-.483-.63-.852-1.39-1.098-2.256-.248-.882-.376-1.867-.376-2.926 0-2.56.488-4.428 1.45-5.548.956-1.112 2.343-1.652 4.234-1.652 1.05 0 1.996.1 2.806.299.821.202 1.663.49 2.507.858l.62.273 2.151-6.755-.495-.234c-1.056-.505-2.262-.925-3.58-1.25-1.323-.326-3.078-.491-5.211-.491-4.323 0-7.673 1.28-9.962 3.802C279.153 25.312 278 28.908 278 33.5c0 2.113.227 4.074.68 5.832.459 1.8 1.222 3.357 2.269 4.635 1.053 1.28 2.435 2.285 4.104 2.987 1.653.694 3.689 1.046 6.049 1.046 1.754 0 3.49-.21 5.155-.622 1.689-.42 3.152-1.04 4.347-1.848l.396-.264-2.113-6.403-.658.403z" mask="url(#b)"/>
        <path fill="#1F548B" d="M320.23 39.266c-.647.395-1.396.74-2.226 1.019-.813.275-1.825.415-3.012.415-1.052 0-1.975-.184-2.749-.548-.764-.356-1.391-.85-1.862-1.47-.483-.63-.854-1.39-1.098-2.256-.248-.882-.375-1.867-.375-2.926 0-2.56.488-4.428 1.45-5.548.955-1.112 2.342-1.652 4.234-1.652 1.05 0 1.995.1 2.805.299.82.202 1.663.49 2.507.858l.621.273 2.152-6.755-.497-.234c-1.058-.505-2.262-.925-3.578-1.25-1.325-.326-3.079-.491-5.213-.491-4.322 0-7.672 1.28-9.96 3.802C301.152 25.312 300 28.908 300 33.5c0 2.113.227 4.074.68 5.832.459 1.8 1.223 3.357 2.269 4.635 1.053 1.28 2.435 2.285 4.105 2.987 1.652.694 3.688 1.046 6.048 1.046 1.755 0 3.49-.21 5.157-.622 1.688-.42 3.15-1.04 4.346-1.848l.395-.264-2.113-6.403-.657.403z" mask="url(#b)"/>
        <path fill="#1F548B" d="M339.86 39.268c-.834 1.142-2.087 1.693-3.832 1.693-.917 0-1.71-.178-2.356-.53a4.162 4.162 0 0 1-1.561-1.488c-.414-.67-.732-1.475-.943-2.383a13.61 13.61 0 0 1-.325-3.061c0-2.706.468-4.658 1.394-5.797.907-1.12 2.149-1.664 3.791-1.664 1.871 0 3.15.63 3.91 1.928.81 1.384 1.22 3.247 1.22 5.533 0 2.65-.437 4.591-1.298 5.77m6.679-16.26c-1.161-1.273-2.632-2.27-4.377-2.967-1.733-.692-3.796-1.042-6.134-1.042-4.39 0-7.866 1.273-10.323 3.782-2.458 2.51-3.705 6.116-3.705 10.717 0 2.124.288 4.098.854 5.87.576 1.798 1.464 3.354 2.64 4.625 1.175 1.273 2.656 2.27 4.4 2.964 1.734.691 3.797 1.042 6.134 1.042 4.393 0 7.858-1.273 10.295-3.785C348.764 41.707 350 38.102 350 33.5c0-2.124-.288-4.098-.857-5.868-.575-1.798-1.451-3.354-2.604-4.622M378.835 42.81c-.151-1.362-.499-2.76-.499-4.16V20h-8.445v17.208c0 .97-.94 1.803-1.767 2.477-.825.673-1.832 1.016-3.106 1.016-1.4 0-2.338-.364-2.777-1.114-.5-.841-.796-2.288-.796-4.298V20H353v16.707c0 2.111.125 3.904.548 5.328.43 1.455 1.031 2.639 1.867 3.514.842.88 1.885 1.519 3.14 1.898 1.211.365 2.584.553 4.1.553 2.253 0 4.236-.469 5.901-1.391 1.353-.75 2.476-1.803 3.353-2.882l1.162 3.27H380l-.356-.665c-.3-1.081-.662-2.178-.81-3.523M406.128 21.453c-.847-.877-1.898-1.516-3.126-1.899-1.185-.368-2.545-.554-4.04-.554-2.435 0-4.464.453-6.03 1.345-1.22.692-2.265 1.62-3.116 2.508l-.753-2.857H382V47h8.526V29.732c0-.958 1.147-1.774 2.008-2.43.891-.673 2.021-1.001 3.331-1.001 1.433 0 2.774.38 3.335 1.157.599.834 1.274 2.267 1.274 4.258V47H409V30.297c0-2.079-.384-3.86-.786-5.295-.42-1.481-1.239-2.675-2.086-3.549M447.31 32.248a15.275 15.275 0 0 0-3.305-1.547c-1.153-.38-2.208-.735-3.163-1.065-.922-.315-1.698-.657-2.31-1.016-.595-.347-.67-.701-.67-.972 0-.514 0-1.717 2.72-1.717 1.322 0 2.646.167 3.937.5 1.358.35 2.432.67 3.29.972l.59.21 2.047-5.995-.474-.25c-1.041-.54-2.486-1.03-4.293-1.456-1.807-.427-3.85-.642-6.076-.642-3.319 0-5.913.729-7.706 2.166-1.837 1.472-2.769 3.615-2.769 6.37 0 1.681.366 3.085 1.085 4.169a9.259 9.259 0 0 0 2.59 2.62 13.056 13.056 0 0 0 3.328 1.587c1.145.36 2.193.714 3.145 1.059.914.329 1.687.694 2.297 1.085.473.3.691.662.691 1.14 0 .887-.394 1.214-.691 1.382-.575.328-1.374.492-2.372.492-1.472 0-2.925-.21-4.321-.625-1.414-.42-2.562-.853-3.41-1.285l-.598-.307-1.733 4.217-.921-3.624-.658.263c-.661.265-1.263.466-1.79.598-.51.127-1.125.19-1.842.19-1.158 0-1.56-.477-1.745-.833-.357-.689-.557-1.898-.557-3.593v-9.046h7.014v-7.04h-7.014V13l-8.417 2.246v5.01H409v7.039h4.209v12.17c0 2.974.556 5.163 1.921 6.508 1.361 1.344 3.408 2.027 6.217 2.027 1.456 0 2.884-.163 4.306-.484 1.421-.32 2.664-.718 3.726-1.182l.477-.212-.014-.034c.98.44 2.137.838 3.47 1.188 1.829.48 3.81.724 5.89.724 3.852 0 6.802-.808 8.773-2.405 2.005-1.625 3.025-3.88 3.025-6.703 0-1.646-.368-3.024-1.086-4.097a8.863 8.863 0 0 0-2.604-2.547" mask="url(#b)"/>
        <path fill="#2C95D2" d="M51.8 56H4.2A4.2 4.2 0 0 1 0 51.8V4.2A4.2 4.2 0 0 1 4.2 0h47.6A4.2 4.2 0 0 1 56 4.2v47.6a4.2 4.2 0 0 1-4.2 4.2" mask="url(#b)"/>
        <path fill="#FFF" d="M31.625 33h-8.25C22.616 33 22 32.36 22 31.571V24.43c0-.789.616-1.429 1.375-1.429h8.25c.759 0 1.375.64 1.375 1.429v7.142C33 32.36 32.384 33 31.625 33M47.625 33h-8.25C38.616 33 38 32.36 38 31.571V24.43c0-.789.616-1.429 1.375-1.429h8.25c.759 0 1.375.64 1.375 1.429v7.142C49 32.36 48.384 33 47.625 33" mask="url(#b)"/>
        <path fill="#FFBA1A" d="M47.625 18h-8.25C38.616 18 38 17.36 38 16.571V9.43C38 8.64 38.616 8 39.375 8h8.25C48.384 8 49 8.64 49 9.429v7.142C49 17.36 48.384 18 47.625 18" mask="url(#b)"/>
        <path fill="#FFF" d="M31.625 49h-8.25C22.616 49 22 48.36 22 47.571V40.43c0-.789.616-1.429 1.375-1.429h8.25c.759 0 1.375.64 1.375 1.429v7.142C33 48.36 32.384 49 31.625 49M16.625 49h-8.25C7.616 49 7 48.36 7 47.571V40.43C7 39.64 7.616 39 8.375 39h8.25c.759 0 1.375.64 1.375 1.429v7.142C18 48.36 17.384 49 16.625 49M47.625 49h-8.25C38.616 49 38 48.36 38 47.571V40.43c0-.789.616-1.429 1.375-1.429h8.25c.759 0 1.375.64 1.375 1.429v7.142C49 48.36 48.384 49 47.625 49" mask="url(#b)"/>
    </g>
</svg>
