<svg xmlns="http://www.w3.org/2000/svg" xmlns:xlink="http://www.w3.org/1999/xlink" width="457" height="110" viewBox="0 0 457 110">
    <defs>
        <path id="a" d="M0 48.69V.169h20.072V48.69z"/>
        <path id="c" d="M.933 62h45.19V.678H.934z"/>
        <path id="e" d="M42.944.176H.586v41.896h42.358V.176z"/>
    </defs>
    <g fill="none" fill-rule="evenodd">
        <path fill="#444C3E" d="M203.462 91H190V49.021h38.346S238 48.06 238 59.117V91h-13.516V62.565s.358-2.586-2.716-2.586h-18.306V91z"/>
        <g transform="translate(0 42)">
            <mask id="b" fill="#fff">
                <use xlink:href="#a"/>
            </mask>
            <path fill="#444C3E" d="M13.618 34.316V.168H0v40.856s.177 7.667 10.08 7.667h9.992V37.192h-3.536s-2.918.443-2.918-2.876" mask="url(#b)"/>
        </g>
        <path fill="#444C3E" d="M155.923 79.944h-14.935c-3.057 0-3.225-3.037-3.225-3.037V59.109h14.764c3.056 0 3.396 2.868 3.396 2.868v17.967zm0-31.627h-24.105c-8.322 0-7.812 6.239-7.812 6.239v26.232c0 10.62 10.02 10.21 10.02 10.21h21.897v-.017H169V42h-13.077v6.317zM186 49h-13v42h13M85.461 91H72V49.021h38.345S120 48.061 120 59.119V91h-13.516V62.564s.36-2.584-2.717-2.584H85.461V91zM54.81 65.708H38.03v8.777h21.244c10.246 0 9.721-7.399 9.721-7.399v-7.607C68.995 48.793 58.61 49 58.61 49H33.243S23 48.812 23 59.496V80.52C23 91.205 33.314 91 33.314 91h34.707V79.596H38.247c-3.238 0-3.112-2.516-3.112-2.516V62.992s-.093-2.587 3.148-2.58c3.24.01 10.85 0 10.85 0h1.195s.203.01 3.444 0c3.238-.007 3.148 2.577 3.148 2.577v2.719h-2.11zM291 42h14.092v5.69h7.807v11.185h-7.503v19.013s.104 1.625 2.436 1.625H313V91h-11.66S291 89.983 291 80.224V42zM329.906 90H316V55.035S317.057 47 326.33 47H345v12.054h-12.314s-2.78-.258-2.78 2.983V90zM379.5 64.107h-17.142v8.988h21.703c10.47 0 9.934-7.573 9.934-7.573v-7.789c0-10.944-10.61-10.733-10.61-10.733H357.47S347 46.81 347 57.75v21.523C347 90.215 357.541 90 357.541 90h35.458V78.33H362.58c-3.311 0-3.18-2.578-3.18-2.578V61.33s-.095-2.65 3.212-2.642c3.314.008 11.09 0 11.09 0h1.221s.209.008 3.518 0c3.31-.007 3.214 2.637 3.214 2.637V64.107H379.5zM429.502 64.107h-17.143v8.988h21.704c10.468 0 9.932-7.573 9.932-7.573v-7.789C443.995 46.79 433.386 47 433.386 47H407.465S397 46.81 397 57.75v21.523C397 90.215 407.54 90 407.54 90H443V78.33h-30.422c-3.31 0-3.178-2.578-3.178-2.578V61.33s-.096-2.65 3.213-2.642c3.312.008 11.088 0 11.088 0h1.222s.206.008 3.517 0c3.311-.007 3.216 2.637 3.216 2.637V64.107h-2.155z"/>
        <g transform="translate(241 48)">
            <mask id="d" fill="#fff">
                <use xlink:href="#c"/>
            </mask>
            <path fill="#444C3E" d="M16.683 31.178s-3.295.18-3.295-2.97V11.363H30.18s3.11-.186 3.11 3.15v16.665H16.682zm29.42-22.713S47.018.678 36.767.678H10.29C.039.678.954 8.465.954 8.465v25.56s.164 7.97 9.499 7.97h22.836v5.726c0 3.34-3.11 3.153-3.11 3.153H13.296v-2.037H.934v3.803h.014v1.574S.282 62 10.346 62h26.421c10.25 0 9.336-7.786 9.336-7.786V8.465z" mask="url(#d)"/>
        </g>
        <g transform="translate(310)">
            <mask id="f" fill="#fff">
                <use xlink:href="#e"/>
            </mask>
            <path fill="#7AC042" d="M.586 42.072V13.396S1.004.176 13.874.176h29.03v28.746s1.466 13.15-13.362 13.15H.586z" mask="url(#f)"/>
        </g>
        <path fill="#444C3E" d="M447.018 52.5a4.487 4.487 0 0 0 4.48 4.481 4.489 4.489 0 0 0 4.484-4.482 4.49 4.49 0 0 0-4.483-4.48 4.488 4.488 0 0 0-4.481 4.48m-1.018 0a5.5 5.5 0 1 1 11 .002 5.5 5.5 0 0 1-11-.002"/>
        <path fill="#444C3E" d="M451.023 52.757h.611c.697 0 1.134-.387 1.134-.98 0-.655-.437-.954-1.108-.954-.327 0-.537.026-.637.052v1.882zM450 50.125a9.238 9.238 0 0 1 1.559-.125c.814 0 1.367.142 1.746.478.308.274.485.689.485 1.192 0 .77-.494 1.29-1.022 1.494v.026c.403.16.646.574.788 1.15.176.742.327 1.43.444 1.66h-1.065c-.084-.177-.219-.663-.378-1.405-.159-.777-.428-1.025-1.014-1.043h-.52V56H450v-5.875z"/>
    </g>
</svg>
