<svg xmlns="http://www.w3.org/2000/svg" xmlns:xlink="http://www.w3.org/1999/xlink" width="315" height="133" viewBox="0 0 315 133">
    <defs>
        <path id="a" d="M0 133h315V0H0z"/>
    </defs>
    <g fill="none" fill-rule="evenodd">
        <path fill="#596DB3" d="M148.402 43.89c-2.015-2.636-5.35-4.646-9.31-4.646-6.321 0-10.49 5.063-10.49 10.751 0 5.828 4.514 10.758 10.838 10.758 3.334 0 6.737-1.668 8.962-4.651V43.89zm.205 19.429C145.97 65.679 142.426 67 138.534 67c-2.918 0-5.973-.835-8.197-2.153C125.405 61.93 122 56.522 122 49.995c0-6.52 3.474-12 8.408-14.91 2.22-1.323 4.932-2.085 7.99-2.085 3.68 0 7.225 1.107 10.21 3.675v-2.981H155v32.608h-6.393v-2.983zM189.4 44.181c-2.015-2.706-5.35-4.77-9.306-4.77-6.326 0-10.492 5.199-10.492 11.039 0 5.984 4.515 11.045 10.835 11.045 3.335 0 6.737-1.713 8.963-4.775V44.18zm-9.867 23.728c-2.912 0-5.971-.857-8.196-2.21-4.933-2.994-8.337-8.548-8.337-15.25 0-6.695 3.474-12.321 8.407-15.308 2.221-1.358 4.932-2.141 7.988-2.141 3.685 0 7.23 1.137 10.213 3.773v-3.06H196v32.055c0 4.99-.626 8.334-1.945 10.972-2.642 5.202-7.642 8.26-14.104 8.26-8.477 0-13.825-4.41-15.907-7.764l4.863-4.628c2.358 3.206 5.417 5.986 10.767 5.986 3.54 0 6.322-1.358 7.917-3.848 1.185-1.852 1.809-4.415 1.809-8.624v-1.853c-2.638 2.355-5.976 3.64-9.867 3.64zM211.337 36.894c1.721-1.7 5.028-3.894 9.713-3.894 4.751 0 9.024 2.264 11.782 5.881 2.065 2.691 3.168 6.09 3.168 11.826V67h-6.545V50.353c0-4.248-.76-6.235-1.93-7.72-1.516-1.987-3.996-3.259-6.68-3.259-4.272 0-7.371 2.336-9.303 4.744V67H205V33.71h6.337v3.184z"/>
        <mask id="b" fill="#fff">
            <use xlink:href="#a"/>
        </mask>
        <path fill="#596DB3" d="M244.078 67h6.84V34.103h-6.84V67zm3.383-49c2.522 0 4.539 1.959 4.539 4.412 0 2.449-2.017 4.337-4.539 4.337-2.517 0-4.461-1.888-4.461-4.337 0-2.453 1.944-4.412 4.461-4.412zM274.586 23.662c-.496-.143-1.557-.285-2.48-.285-1.912 0-3.968.85-5.098 2.335-.924 1.207-1.276 2.905-1.276 5.953v3.047H276v6.019h-10.268V68H259V31.877c0-4.463.637-7.226 2.128-9.35 2.408-3.47 6.375-5.527 10.908-5.527 1.414 0 3.045.216 3.964.499l-1.414 6.163zM286.198 84l8.92-20.351L281 34h7.163l10.326 21.829L307.976 34H315l-21.706 50zM64.446 33.712v3.183C65.778 35.412 69.63 33 74.116 33c4.834 0 8.897 2.194 11.629 5.526C88.76 35.48 92.33 33 98.285 33c4.695 0 8.97 2.132 11.701 5.597C112.02 41.145 113 44.405 113 50.002V67h-6.657V48.94c0-3.401-.697-5.244-1.89-6.66a8.05 8.05 0 0 0-6.167-2.902c-4.763 0-7.845 2.477-10.016 4.743.35 1.63.558 3.544.558 5.88V67h-6.656V48.94c0-3.401-.702-5.244-1.89-6.66-1.473-1.77-3.852-2.902-6.376-2.902-4.064 0-7.358 2.477-9.249 4.743V67H58V33.712h6.446z" mask="url(#b)"/>
        <path fill="#25304F" d="M7.108 133a7.025 7.025 0 0 1-5.015-2.111c-2.78-2.84-2.793-7.435-.028-10.257L29.543 92.64l3.349 3.415-27.48 27.992c-.918.937-.905 2.473.03 3.427a2.328 2.328 0 0 0 3.336-.003L38.48 97.208c-.606-.569-1.2-1.16-1.78-1.764L35.06 93.74 42.652 86 46 89.416l-4.237 4.312a43.33 43.33 0 0 0 1.691 1.514l1.99 1.692-33.32 33.955A7.022 7.022 0 0 1 7.108 133" mask="url(#b)"/>
        <path fill="#25304F" d="M81.978 102C53.868 102 31 79.123 31 51.005 31 22.88 53.867 0 81.978 0c16.958 0 32.76 8.403 42.27 22.483l-4.007 2.709C111.634 12.445 97.328 4.836 81.978 4.836c-25.445 0-46.145 20.71-46.145 46.17 0 25.451 20.7 46.16 46.145 46.16 16.322 0 31.595-8.768 39.853-22.877l4.169 2.44C116.882 92.32 100.013 102 81.978 102M162.75 100.395v1.781c.774-.831 3.017-2.176 5.626-2.176 2.812 0 5.177 1.226 6.767 3.087 1.753-1.702 3.832-3.087 7.297-3.087 2.73 0 5.218 1.187 6.807 3.126 1.183 1.426 1.753 3.246 1.753 6.373V119h-3.872v-10.093c0-1.9-.408-2.93-1.101-3.722a4.755 4.755 0 0 0-3.587-1.623c-2.772 0-4.566 1.385-5.83 2.653.204.91.326 1.978.326 3.284V119h-3.872v-10.093c0-1.9-.407-2.93-1.1-3.722-.857-.99-2.243-1.623-3.71-1.623-2.365 0-4.281 1.385-5.381 2.653V119H159v-18.605h3.75zM205 116.327c3.58 0 6.09-2.816 6.09-6.327 0-3.51-2.51-6.327-6.09-6.327s-6.09 2.816-6.09 6.327 2.51 6.327 6.09 6.327M205 100c5.72 0 10 4.286 10 10s-4.28 10-10 10-10-4.286-10-10 4.28-10 10-10M224.68 102.176c1-.95 2.92-2.176 5.64-2.176 2.76 0 5.24 1.266 6.84 3.285 1.2 1.505 1.84 3.403 1.84 6.611V119h-3.8v-9.303c0-2.374-.44-3.482-1.12-4.315-.88-1.107-2.32-1.82-3.88-1.82-2.48 0-4.28 1.306-5.4 2.653V119H221v-18.605h3.68v1.781zM246.956 107.55h10.128c-.555-2.449-2.69-4.162-4.906-4.162-2.413 0-4.59 1.673-5.222 4.163zm-.317 3.266c.198 3.224 2.77 5.796 6.013 5.796 2.77 0 4.273-1.388 5.341-2.611l2.453 2.406c-1.385 1.838-4.035 3.593-7.833 3.593-5.42 0-9.613-4.245-9.613-10s3.798-10 9.059-10c5.183 0 8.941 4.327 8.941 10 0 .163 0 .449-.04.816h-14.32zM267.059 130l5.248-11.804L264 101h4.216l6.074 12.662L279.868 101H284l-12.768 29z" mask="url(#b)"/>
        <path fill="#25304F" d="M162.75 100.395v1.781c.774-.831 3.017-2.176 5.626-2.176 2.812 0 5.177 1.226 6.767 3.087 1.753-1.702 3.832-3.087 7.297-3.087 2.73 0 5.218 1.187 6.807 3.126 1.183 1.426 1.753 3.246 1.753 6.373V119h-3.872v-10.093c0-1.9-.408-2.93-1.101-3.722a4.755 4.755 0 0 0-3.587-1.623c-2.772 0-4.566 1.385-5.83 2.653.204.91.326 1.978.326 3.284V119h-3.872v-10.093c0-1.9-.407-2.93-1.1-3.722-.857-.99-2.243-1.623-3.71-1.623-2.365 0-4.281 1.385-5.381 2.653V119H159v-18.605h3.75zM205 116.327c3.58 0 6.09-2.816 6.09-6.327 0-3.51-2.51-6.327-6.09-6.327s-6.09 2.816-6.09 6.327 2.51 6.327 6.09 6.327M205 100c5.72 0 10 4.286 10 10s-4.28 10-10 10-10-4.286-10-10 4.28-10 10-10M224.68 102.176c1-.95 2.92-2.176 5.64-2.176 2.76 0 5.24 1.266 6.84 3.285 1.2 1.505 1.84 3.403 1.84 6.611V119h-3.8v-9.303c0-2.374-.44-3.482-1.12-4.315-.88-1.107-2.32-1.82-3.88-1.82-2.48 0-4.28 1.306-5.4 2.653V119H221v-18.605h3.68v1.781zM246.956 107.55h10.128c-.555-2.449-2.69-4.162-4.906-4.162-2.413 0-4.59 1.673-5.222 4.163zm-.317 3.266c.198 3.224 2.77 5.796 6.013 5.796 2.77 0 4.273-1.388 5.341-2.611l2.453 2.406c-1.385 1.838-4.035 3.593-7.833 3.593-5.42 0-9.613-4.245-9.613-10s3.798-10 9.059-10c5.183 0 8.941 4.327 8.941 10 0 .163 0 .449-.04.816h-14.32zM267.059 130l5.248-11.804L264 101h4.216l6.074 12.662L279.868 101H284l-12.768 29zM294.82 101l2.23 3.383L299.3 101H300v6h-1.124v-3.478l-1.481 2.21h-.687l-1.466-2.21V107h-1.14v-6h.718zm-1.575 0v1.064h-1.561V107h-1.123v-4.936H289V101h4.245z" mask="url(#b)"/>
    </g>
</svg>
