<?xml version="1.0" encoding="UTF-8"?>
<svg width="600px" height="126px" viewBox="0 0 600 126" version="1.1" xmlns="http://www.w3.org/2000/svg" xmlns:xlink="http://www.w3.org/1999/xlink">
    <!-- Generator: Sketch 49.3 (51167) - http://www.bohemiancoding.com/sketch -->
    <title>logos/simpletuition</title>
    <desc>Created with Sketch.</desc>
    <defs></defs>
    <g id="Page-1" stroke="none" stroke-width="1" fill="none" fill-rule="evenodd">
        <g id="Artboard" transform="translate(-111.000000, -223.000000)">
            <g id="logos/simpletuition" transform="translate(111.000000, 223.000000)">
                <g id="Simple-Tuition-Logo">
                    <path d="M462.594753,14.4075285 C462.594753,19.9695057 458.086768,24.468365 452.529354,24.468365 C446.978783,24.468365 442.47308,19.9695057 442.47308,14.4075285 C442.47308,8.85011407 446.978783,4.34897338 452.529354,4.34897338 C458.086768,4.34897338 462.594753,8.85011407 462.594753,14.4075285" id="Fill-1" fill="#82B33B"></path>
                    <path d="M406.176502,14.4109506 C406.176502,19.9729278 401.67308,24.4717871 396.120228,24.4717871 C390.560532,24.4717871 386.059392,19.9729278 386.059392,14.4109506 C386.059392,8.85581749 390.560532,4.35011407 396.120228,4.35011407 C401.67308,4.35011407 406.176502,8.85581749 406.176502,14.4109506" id="Fill-3" fill="#E17C05"></path>
                    <path d="M52.189962,4.34965779 C57.5990875,4.34965779 61.9747529,8.7321673 61.9747529,14.13673 C61.9747529,19.5481369 57.5990875,23.928365 52.189962,23.928365 C46.7831179,23.928365 42.398327,19.5481369 42.398327,14.13673 C42.398327,8.7321673 46.7831179,4.34965779 52.189962,4.34965779" id="Fill-5" fill="#0082C3"></path>
                    <path d="M589.181749,72.006251 L590.240304,72.006251 C591.440304,72.006251 592.195437,71.3720304 592.195437,70.3978859 C592.195437,69.3233612 591.440304,68.8328669 590.281369,68.8328669 C589.717871,68.8328669 589.355133,68.8762129 589.181749,68.9172776 L589.181749,72.006251 Z M583.358099,72.5765932 C583.364943,76.4937034 586.533764,79.657962 590.446312,79.6648061 C594.361141,79.657962 597.529962,76.4937034 597.536806,72.5765932 C597.529962,68.6640456 594.361141,65.4952243 590.446312,65.4906616 C586.533764,65.4952243 583.364943,68.6640456 583.358099,72.5765932 M581.749734,72.5765932 C581.749734,67.7743118 585.641749,63.8800152 590.446312,63.8777338 C595.248593,63.8800152 599.147452,67.7743118 599.147452,72.5765932 C599.147452,77.3811559 595.248593,81.2731711 590.446312,81.2754525 C585.641749,81.2731711 581.749734,77.3811559 581.749734,72.5765932 M589.181749,72.006251 L590.240304,72.006251 C591.440304,72.006251 592.195437,71.3720304 592.195437,70.3978859 C592.195437,69.3233612 591.440304,68.8328669 590.281369,68.8328669 C589.717871,68.8328669 589.355133,68.8762129 589.181749,68.9172776 L589.181749,72.006251 Z M587.41597,67.6876198 C588.082129,67.5735513 589.081369,67.4868593 590.107985,67.4868593 C591.513308,67.4868593 592.469202,67.7195589 593.123954,68.2670875 C593.657795,68.7187985 593.963498,69.3986464 593.963498,70.2245019 C593.963498,71.4838175 593.110266,72.3393308 592.195437,72.6724106 L592.195437,72.718038 C592.893536,72.9758327 593.313308,73.657962 593.557414,74.6024487 C593.863118,75.8184183 594.123194,76.9454144 594.326236,77.3218403 L592.485171,77.3218403 C592.341445,77.0321065 592.106464,76.2359087 591.8327,75.0176578 C591.558935,73.7469354 591.093536,73.3385703 590.08289,73.3089125 L589.181749,73.3089125 L589.181749,77.3218403 L587.41597,77.3218403 L587.41597,67.6876198 Z M589.181749,72.006251 L589.181749,68.9172776 C589.355133,68.8762129 589.717871,68.8328669 590.281369,68.8328669 C591.440304,68.8328669 592.195437,69.3233612 592.195437,70.3978859 C592.195437,71.3720304 591.440304,72.006251 590.240304,72.006251 L589.181749,72.006251 Z M396.649962,28.1358935 C399.465171,28.1358935 402.052243,27.3739163 404.126008,26.1054753 L404.126008,81.1571863 L387.638555,81.1571863 L387.638555,25.6537643 L387.725247,25.6537643 C389.89711,27.1936882 393.51308,28.1358935 396.649962,28.1358935 Z M52.9051711,28.1358935 C55.7203802,28.1358935 58.3074525,27.3739163 60.3812167,26.1054753 L60.3812167,81.1571863 L43.8937643,81.1571863 L43.8937643,25.6537643 L43.9804563,25.6537643 C46.1523194,27.1936882 49.7705703,28.1358935 52.9051711,28.1358935 Z M0.513992395,60.5650951 C0.513992395,60.5650951 7.59536122,66.8730798 17.1269202,66.8730798 C19.7025856,66.8730798 22.9238783,66.2342966 22.9238783,62.7552091 C22.9238783,60.4373384 19.8326236,59.5361977 18.1580989,59.1506464 L14.1611407,58.2495057 C6.95201521,56.4495057 0.000684410646,50.3924715 0.000684410646,41.6365779 C0.000684410646,30.6928517 9.01209125,22.9635741 20.9892776,22.9635741 C31.2896578,22.9635741 36.703346,26.8282129 36.703346,26.8282129 L36.703346,41.6365779 C36.8265399,41.6365779 30.2607605,36.6130038 21.1193156,36.6130038 C17.7725475,36.6130038 15.5824335,38.0297338 15.5824335,40.3498859 C15.5824335,43.053308 18.5413688,43.9544487 21.7626616,44.8578707 L24.7238783,45.626692 C30.5208365,47.3012167 38.3755894,51.9392395 38.3755894,62.7552091 C38.3755894,73.8312548 29.2295817,80.7871483 17.6425095,80.7871483 C11.329962,80.7871483 5.79307985,79.3681369 0.513992395,76.1514068 L0.513992395,60.5650951 Z M114.414297,47.4351331 L114.414297,80.775057 L97.9291255,80.775057 L97.9291255,47.4351331 C97.9291255,41.8959696 95.4857795,38.2936882 90.459924,38.2936882 C85.4386312,38.2936882 82.8606844,41.8959696 82.8606844,47.4351331 L82.8606844,80.775057 L66.380076,80.775057 L66.380076,47.4351331 C66.380076,31.2054753 77.5838783,22.9628897 90.459924,22.9628897 C96.2568821,22.9628897 101.921521,24.7628897 106.171711,28.3765779 C110.424183,24.7628897 116.088821,22.9628897 122.011255,22.9628897 C134.889582,22.9628897 145.967909,31.2054753 145.967909,47.4351331 L145.967909,80.775057 L129.482738,80.775057 L129.482738,47.4351331 C129.482738,41.8959696 127.039392,38.2936882 122.011255,38.2936882 C117.245475,38.2936882 114.414297,41.5081369 114.414297,47.4351331 Z M214.719696,15.5838023 L230.228441,-0.000228136882 L230.228441,81.1571863 L214.719696,81.1571863 L214.719696,15.5838023 Z M292.014297,60.958403 C292.014297,60.958403 285.831787,80.7880608 264.713156,80.7880608 C248.745856,80.7880608 235.86981,67.9051711 235.86981,51.9378707 C235.86981,35.8428137 248.745856,22.9644867 264.713156,22.9644867 C279.781597,22.9644867 292.532167,34.9393916 292.532167,47.4344487 C292.532167,53.3546008 289.568669,57.9949049 282.482738,57.9949049 L253.249278,57.9949049 C253.249278,57.9949049 255.827224,65.4641065 264.713156,65.4641065 C270.895665,65.4641065 274.114677,60.958403 274.114677,60.958403 L292.014297,60.958403 Z M275.533688,45.889962 C275.533688,45.889962 272.958023,38.8040304 264.713156,38.8040304 C255.827224,38.8040304 253.249278,45.889962 253.249278,45.889962 L275.533688,45.889962 Z M364.847909,55.1591635 L364.847909,25.4648669 L381.330798,25.4648669 L381.330798,55.1591635 C381.330798,72.0276046 370.770342,80.7880608 356.73308,80.7880608 C342.568061,80.7880608 332.005323,72.0276046 332.005323,55.1591635 L332.005323,25.4648669 L348.488213,25.4648669 L348.488213,55.1591635 C348.488213,61.081597 350.938403,65.4641065 356.73308,65.4641065 C362.397719,65.4641065 364.847909,61.081597 364.847909,55.1591635 Z M494.068289,22.9642586 C510.167909,22.9642586 523.043954,35.8425856 523.043954,51.939924 C523.043954,67.9072243 510.167909,80.7878327 494.068289,80.7878327 C478.10327,80.7878327 465.222662,67.9072243 465.222662,51.939924 C465.222662,35.8425856 478.10327,22.9642586 494.068289,22.9642586 Z M494.068289,64.8205323 C501.284259,64.8205323 506.946616,59.0190114 506.946616,51.939924 C506.946616,44.7285171 501.284259,38.9361217 494.068289,38.9361217 C486.98692,38.9361217 481.192243,44.7285171 481.192243,51.939924 C481.192243,59.0190114 486.98692,64.8205323 494.068289,64.8205323 Z M543.913004,48.3406084 L543.913004,80.5831939 L527.430114,80.5831939 L527.430114,48.3406084 C527.430114,31.4653232 537.99057,22.5793916 552.155589,22.5793916 C566.192852,22.5793916 576.753308,31.4653232 576.753308,48.3406084 L576.753308,80.5831939 L560.270418,80.5831939 L560.270418,48.3406084 C560.270418,42.2835741 557.82251,37.9101901 552.155589,37.9101901 C546.363194,37.9101901 543.913004,42.2835741 543.913004,48.3406084 Z M453.404715,28.0946008 C456.219924,28.0946008 458.806996,27.3326236 460.878479,26.0641825 L460.878479,81.1181749 L444.393308,81.1181749 L444.393308,25.6147529 L444.48,25.6147529 C446.654144,27.1523954 450.270114,28.0946008 453.404715,28.0946008 Z M152.01924,51.939924 C152.01924,35.8425856 164.902129,22.9642586 180.994905,22.9642586 C196.964487,22.9642586 209.840532,35.8425856 209.840532,51.939924 C209.840532,67.651711 197.480076,80.7878327 181.768289,80.7878327 C173.527985,80.7878327 168.502129,77.0532319 168.502129,77.0532319 L168.502129,125.222053 L152.01924,110.662357 L152.01924,51.939924 Z M180.994905,64.8205323 C188.076274,64.8205323 193.870951,59.0190114 193.870951,51.939924 C193.870951,44.7285171 188.076274,38.9361217 180.994905,38.9361217 C173.785779,38.9361217 168.114297,44.7285171 168.114297,51.939924 C168.114297,59.0190114 173.785779,64.8205323 180.994905,64.8205323 Z M297.990798,15.9670722 L314.478251,0.408136882 L314.478251,25.3959696 L324.906388,25.3959696 L324.906388,40.7176426 L314.478251,40.7176426 L314.478251,56.8126996 C314.478251,62.9952091 318.468365,65.5754373 322.978631,65.5754373 L325.807529,65.5754373 L325.807529,80.901673 L322.978631,80.901673 C305.592319,80.901673 297.990798,69.4355133 297.990798,56.8126996 L297.990798,15.9670722 Z M410.309202,16.1041825 L426.794373,0.545247148 L426.794373,25.5330798 L437.220228,25.5330798 L437.220228,40.8547529 L426.794373,40.8547529 L426.794373,56.9520913 C426.794373,63.1323194 430.784487,65.7125475 435.297034,65.7125475 L438.125932,65.7125475 L438.125932,81.0342205 L435.297034,81.0342205 C417.908441,81.0342205 410.309202,69.5703422 410.309202,56.9520913 L410.309202,16.1041825 Z" id="Combined-Shape" fill="#00417C"></path>
                </g>
            </g>
        </g>
    </g>
</svg>