<svg xmlns="http://www.w3.org/2000/svg" xmlns:xlink="http://www.w3.org/1999/xlink" width="345" height="113" viewBox="0 0 345 113">
    <defs>
        <path id="a" d="M104.444 17.945h2.06c.563-.077 1.028-.236 1.396-.477.54-.355.963-.947 1.266-1.775l4.274-11.457h-2.909l-2.235 6.98h-.04l-2.315-6.98h-2.988l3.581 9.564c.08.197.12.407.12.63 0 .303-.09.58-.268.829-.178.25-.452.395-.821.434a5.927 5.927 0 0 1-.83-.02c-.278-.026-.549-.052-.812-.079v2.307c.174.016.348.031.521.044zM5.574 8.988h3.66L7.453 3.822h-.04l-1.84 5.166zM5.87.351h3.186l5.283 14.08h-3.225l-1.069-3.136H4.762l-1.108 3.136H.528L5.87.35zm21.3 8.992c0-.434-.047-.848-.139-1.242a3.234 3.234 0 0 0-.436-1.045 2.276 2.276 0 0 0-.741-.72c-.297-.178-.656-.266-1.079-.266-.409 0-.765.088-1.068.266a2.24 2.24 0 0 0-.752.72 3.22 3.22 0 0 0-.435 1.045 5.414 5.414 0 0 0-.139 1.242c0 .421.046.829.139 1.223.092.394.237.743.435 1.045.198.303.448.542.752.72.303.177.66.266 1.068.266.423 0 .782-.089 1.079-.266.296-.178.544-.417.741-.72.199-.302.344-.65.436-1.045a5.36 5.36 0 0 0 .138-1.223zM19.67.351h2.81v5.127h.04c.343-.526.807-.91 1.395-1.153a4.734 4.734 0 0 1 1.83-.365 3.908 3.908 0 0 1 2.879 1.281c.402.434.728.99.98 1.667.25.677.375 1.482.375 2.415 0 .934-.125 1.739-.375 2.416-.252.677-.578 1.233-.98 1.666a3.893 3.893 0 0 1-2.88 1.282c-.75 0-1.424-.118-2.017-.355a2.56 2.56 0 0 1-1.346-1.202h-.04v1.3h-2.67V.352zM38.097 8.24c-.133-.71-.367-1.249-.703-1.617-.337-.368-.848-.552-1.534-.552-.448 0-.82.076-1.118.227a2.128 2.128 0 0 0-.712.562c-.178.223-.303.46-.376.71-.072.25-.115.473-.129.67h4.572zm-4.572 1.775c.04.907.271 1.564.693 1.972.422.407 1.029.611 1.82.611.568 0 1.056-.142 1.465-.424.408-.283.659-.582.752-.897h2.473c-.396 1.222-1.002 2.097-1.82 2.622-.818.526-1.808.789-2.968.789-.805 0-1.53-.128-2.177-.385a4.526 4.526 0 0 1-1.642-1.093 4.923 4.923 0 0 1-1.04-1.697 6.186 6.186 0 0 1-.365-2.169c0-.762.125-1.472.376-2.13a5 5 0 0 1 1.068-1.705 5.025 5.025 0 0 1 1.653-1.134c.64-.276 1.348-.414 2.127-.414.87 0 1.629.167 2.275.503a4.534 4.534 0 0 1 1.593 1.35c.415.566.715 1.21.9 1.933.185.723.25 1.479.198 2.268h-7.38zM45.58 4.236h2.058V6.11H45.58v5.048c0 .473.08.788.238.946.158.157.475.236.95.236.157 0 .31-.006.454-.02.145-.012.284-.032.416-.059v2.17c-.237.04-.501.065-.791.079-.29.013-.574.02-.852.02-.435 0-.847-.03-1.236-.09a2.926 2.926 0 0 1-1.029-.344 1.826 1.826 0 0 1-.702-.73c-.172-.315-.257-.73-.257-1.242V6.11h-1.702V4.236h1.702V1.179h2.809v3.057zm6.415 0h2.058V6.11h-2.058v5.048c0 .473.08.788.238.946.158.157.475.236.95.236.158 0 .31-.006.455-.02.145-.012.284-.032.415-.059v2.17a6.73 6.73 0 0 1-.792.079c-.29.013-.573.02-.85.02a8.22 8.22 0 0 1-1.237-.09 2.926 2.926 0 0 1-1.029-.344 1.835 1.835 0 0 1-.702-.73c-.171-.315-.257-.73-.257-1.242V6.11h-1.702V4.236h1.702V1.179h2.81v3.057zm9.74 4.003c-.132-.71-.366-1.249-.702-1.617-.337-.368-.848-.552-1.534-.552-.449 0-.821.076-1.118.227a2.137 2.137 0 0 0-.713.562 2.07 2.07 0 0 0-.375.71c-.073.25-.116.473-.129.67h4.57zm-4.57 1.775c.04.907.27 1.564.692 1.972.422.407 1.029.611 1.82.611.567 0 1.056-.142 1.465-.424.409-.283.66-.582.751-.897h2.474c-.396 1.222-1.003 2.097-1.82 2.622-.819.526-1.808.789-2.969.789-.804 0-1.53-.128-2.176-.385a4.519 4.519 0 0 1-1.642-1.093 4.924 4.924 0 0 1-1.04-1.697 6.186 6.186 0 0 1-.366-2.169c0-.762.126-1.472.376-2.13A5.008 5.008 0 0 1 55.8 5.508a5.025 5.025 0 0 1 1.652-1.134c.64-.276 1.349-.414 2.127-.414.87 0 1.63.167 2.276.503a4.537 4.537 0 0 1 1.592 1.35c.416.566.716 1.21.9 1.933.185.723.252 1.479.199 2.268h-7.38zm8.492-5.778V14.43h2.81V9.836c0-.46.046-.887.138-1.281.093-.395.248-.74.466-1.036a2.26 2.26 0 0 1 .86-.7c.356-.17.791-.256 1.306-.256.172 0 .35.01.535.03.184.02.342.042.474.069V4.059a2.179 2.179 0 0 0-.613-.099c-.357 0-.7.052-1.029.157-.33.105-.64.254-.93.444a3.51 3.51 0 0 0-1.306 1.568h-.04V4.236h-2.671zM89.45 14.43l3.225-10.195h-2.889l-1.88 6.902h-.04l-1.74-6.902h-2.73l-1.703 6.922h-.04l-1.879-6.922h-2.968l3.245 10.195h2.909l1.74-6.843h.04l1.82 6.843h2.89zm3.744-7.06c.039-.657.204-1.202.495-1.637.29-.433.66-.782 1.108-1.045.448-.262.952-.45 1.513-.562a8.651 8.651 0 0 1 1.692-.167c.514 0 1.036.036 1.563.109.528.072 1.01.213 1.444.423.436.21.792.503 1.069.878.277.374.416.87.416 1.489v5.304c0 .46.026.9.079 1.321.053.421.145.737.277.947H100a3.982 3.982 0 0 1-.197-.986 3.66 3.66 0 0 1-1.583.966 6.372 6.372 0 0 1-1.86.276 5.04 5.04 0 0 1-1.366-.177 3.133 3.133 0 0 1-1.107-.552 2.572 2.572 0 0 1-.743-.947c-.178-.381-.267-.835-.267-1.36 0-.58.102-1.055.307-1.43a2.56 2.56 0 0 1 .791-.898c.324-.223.693-.39 1.108-.502.416-.112.835-.2 1.257-.266a21.64 21.64 0 0 1 1.246-.158 7.52 7.52 0 0 0 1.089-.178c.316-.078.567-.194.751-.345.186-.15.271-.371.258-.66 0-.303-.05-.543-.149-.72a1.089 1.089 0 0 0-.395-.414 1.561 1.561 0 0 0-.574-.197 4.673 4.673 0 0 0-.702-.05c-.554 0-.99.119-1.307.355-.316.237-.5.631-.554 1.183h-2.81zm6.49 2.07a1.263 1.263 0 0 1-.445.248c-.179.059-.37.108-.574.147a8.71 8.71 0 0 1-.643.099c-.225.026-.448.06-.673.099-.21.039-.419.091-.623.157a1.83 1.83 0 0 0-.534.266 1.27 1.27 0 0 0-.366.424c-.093.172-.139.388-.139.651 0 .25.046.46.139.631.092.171.217.306.375.404.159.099.344.168.555.208.21.039.428.059.652.059.554 0 .984-.092 1.287-.276.303-.184.527-.405.672-.661.146-.256.235-.516.267-.78a5.27 5.27 0 0 0 .05-.63V9.442zm22.669-5.205V1.179h-2.81v3.057h-1.701V6.11h1.701v6.014c0 .513.086.927.257 1.242.172.316.406.558.703.73.297.17.64.285 1.029.345.39.059.801.088 1.236.088.278 0 .56-.006.852-.02.29-.013.553-.039.79-.078v-2.17c-.13.027-.27.047-.415.06-.145.013-.296.02-.455.02-.474 0-.79-.08-.95-.237-.158-.158-.237-.473-.237-.946V6.11h2.058V4.236h-2.058zm5.347 5.107c0 .408.04.806.119 1.193.079.388.214.737.405 1.046.191.308.445.555.762.739.317.184.712.276 1.187.276.475 0 .874-.092 1.197-.276.324-.184.58-.43.772-.74.191-.308.327-.657.406-1.045a6.13 6.13 0 0 0 0-2.396 3.061 3.061 0 0 0-.406-1.045 2.247 2.247 0 0 0-.772-.74c-.323-.19-.722-.285-1.197-.285-.475 0-.87.095-1.187.286-.317.19-.57.437-.762.74-.191.301-.326.65-.405 1.045-.08.394-.12.795-.12 1.202zm-2.81 0c0-.814.126-1.554.376-2.218.25-.664.607-1.23 1.069-1.696a4.782 4.782 0 0 1 1.661-1.085c.647-.256 1.372-.384 2.177-.384.805 0 1.534.128 2.187.384.653.256 1.21.618 1.672 1.085a4.764 4.764 0 0 1 1.068 1.696c.25.664.376 1.404.376 2.218 0 .815-.125 1.552-.376 2.209a4.776 4.776 0 0 1-1.068 1.686 4.657 4.657 0 0 1-1.672 1.074c-.653.25-1.382.375-2.187.375-.805 0-1.53-.124-2.177-.375a4.67 4.67 0 0 1-1.661-1.074 4.778 4.778 0 0 1-1.069-1.686c-.25-.657-.376-1.394-.376-2.209zm24.307 0c0-.434-.046-.848-.138-1.242a3.22 3.22 0 0 0-.436-1.045 2.281 2.281 0 0 0-.741-.72c-.298-.178-.657-.266-1.079-.266-.409 0-.765.088-1.068.266a2.246 2.246 0 0 0-.753.72 3.22 3.22 0 0 0-.435 1.045 5.447 5.447 0 0 0-.138 1.242c0 .421.046.829.138 1.223.092.394.237.743.435 1.045.199.303.449.542.753.72.303.177.66.266 1.068.266.422 0 .781-.089 1.079-.266.296-.178.543-.417.741-.72.198-.302.343-.65.436-1.045.092-.394.138-.802.138-1.223zM141.698.351h2.81v5.127h.04c.342-.526.807-.91 1.395-1.153a4.732 4.732 0 0 1 1.83-.365 3.91 3.91 0 0 1 2.878 1.281c.403.434.73.99.98 1.667s.376 1.482.376 2.415c0 .934-.126 1.739-.376 2.416-.25.677-.577 1.233-.98 1.666a3.898 3.898 0 0 1-2.878 1.282c-.753 0-1.425-.118-2.019-.355a2.559 2.559 0 0 1-1.345-1.202h-.04v1.3h-2.67V.352zm14.033 8.992c0 .408.04.806.12 1.193.078.388.213.737.404 1.046.192.308.446.555.762.739.317.184.713.276 1.188.276s.874-.092 1.196-.276c.324-.184.581-.43.772-.74.192-.308.327-.657.406-1.045a6.086 6.086 0 0 0 0-2.396 3.05 3.05 0 0 0-.406-1.045 2.242 2.242 0 0 0-.772-.74c-.322-.19-.721-.285-1.196-.285s-.87.095-1.188.286a2.28 2.28 0 0 0-.762.74c-.19.301-.326.65-.405 1.045-.079.394-.119.795-.119 1.202zm-2.81 0c0-.814.126-1.554.377-2.218.25-.664.606-1.23 1.068-1.696a4.784 4.784 0 0 1 1.662-1.085c.647-.256 1.372-.384 2.177-.384.804 0 1.533.128 2.186.384s1.21.618 1.672 1.085a4.765 4.765 0 0 1 1.068 1.696c.251.664.377 1.404.377 2.218 0 .815-.126 1.552-.377 2.209a4.778 4.778 0 0 1-1.068 1.686 4.655 4.655 0 0 1-1.672 1.074c-.653.25-1.382.375-2.186.375-.805 0-1.53-.124-2.177-.375a4.673 4.673 0 0 1-1.662-1.074 4.776 4.776 0 0 1-1.068-1.686c-.251-.657-.377-1.394-.377-2.209zm11.857-5.107V14.43h2.81V9.836c0-.46.046-.887.138-1.281.093-.395.248-.74.466-1.036.217-.296.504-.529.86-.7.356-.17.791-.256 1.306-.256.171 0 .35.01.535.03.184.02.342.042.474.069V4.059a2.179 2.179 0 0 0-.613-.099c-.357 0-.7.052-1.029.157-.33.105-.64.254-.93.444a3.51 3.51 0 0 0-1.306 1.568h-.04V4.236h-2.671zm7.148 0h2.67v1.893h.04a3.527 3.527 0 0 1 1.306-1.568c.29-.19.6-.339.93-.444.33-.105.673-.157 1.03-.157.184 0 .388.033.613.099v2.603a5.282 5.282 0 0 0-.475-.07 5.024 5.024 0 0 0-.534-.029c-.515 0-.95.085-1.307.256a2.264 2.264 0 0 0-.86.7 2.812 2.812 0 0 0-.465 1.036 5.598 5.598 0 0 0-.139 1.281v4.595h-2.81V4.236zm9.284 5.107c0 .408.04.806.119 1.193.079.388.214.737.405 1.046.191.308.445.555.762.739.317.184.712.276 1.187.276.476 0 .874-.092 1.198-.276.322-.184.58-.43.77-.74.193-.308.328-.657.407-1.045a6.086 6.086 0 0 0 0-2.396 3.05 3.05 0 0 0-.406-1.045 2.245 2.245 0 0 0-.771-.74c-.324-.19-.722-.285-1.198-.285-.475 0-.87.095-1.187.286-.317.19-.57.437-.762.74-.19.301-.326.65-.405 1.045-.08.394-.12.795-.12 1.202zm-2.81 0c0-.814.126-1.554.376-2.218.25-.664.607-1.23 1.069-1.696a4.779 4.779 0 0 1 1.662-1.085c.646-.256 1.372-.384 2.176-.384.805 0 1.534.128 2.187.384.653.256 1.21.618 1.672 1.085a4.781 4.781 0 0 1 1.069 1.696c.25.664.375 1.404.375 2.218 0 .815-.125 1.552-.375 2.209a4.794 4.794 0 0 1-1.069 1.686 4.657 4.657 0 0 1-1.672 1.074c-.653.25-1.382.375-2.187.375-.804 0-1.53-.124-2.176-.375a4.668 4.668 0 0 1-1.662-1.074 4.778 4.778 0 0 1-1.069-1.686c-.25-.657-.376-1.394-.376-2.209zm23.551 5.088h-2.889l-1.82-6.843h-.04l-1.741 6.843h-2.909l-3.245-10.195h2.968l1.88 6.922h.04l1.701-6.922h2.731l1.741 6.902h.04l1.88-6.902h2.888l-3.225 10.195zm2.893 0v-3.037h3.106v3.037h-3.106z"/>
        <path id="c" d="M5.725 5.674h.703V.692h.027L8.39 5.674h.398L10.725.692h.026v4.982h.702V.034h-1.127l-1.71 4.573L6.853.034H5.725v5.64zm-3.447 0V.651H.501V.034h4.257v.617H2.98v5.023h-.703z"/>
        <path id="e" d="M29.1 32.365H40.84c-1.255 11.224-9.588 18.804-20.25 18.804C8.581 51.17.337 42.407.337 25.08.338 7.752 8.582.172 20.947.172c11.469 0 19.264 7.186 19.98 18.607H29.19c-.627-5.021-3.943-7.975-8.333-7.975-4.928 0-8.96 3.446-8.96 13.98s4.032 15.654 8.602 15.654c4.569 0 8.154-2.855 8.602-8.073zm41.473-.886l.09-5.317c-1.166 1.28-3.228 1.97-7.533 2.856-6.636 1.378-8.788 3.446-8.788 7.58 0 3.643 1.973 5.415 5.65 5.415 6.007 0 10.491-4.824 10.581-10.534zm11.747 18.41H71.47c-.359-1.181-.628-2.855-.718-4.332-2.78 3.348-7.443 5.612-13.361 5.612-10.044 0-14.707-5.415-14.707-13.291 0-13.98 8.52-15.555 20.267-17.327 5.828-.886 7.442-2.167 7.442-5.513 0-3.151-2.869-5.022-7.442-5.022-5.29 0-7.443 2.856-7.981 7.187H44.119c.18-10.042 5.2-17.031 19.37-17.031 13.989 0 18.831 6.89 18.831 19.099v30.618zm25.521-9.648c6.8 0 10.02-5.021 10.02-14.964 0-8.664-4.116-14.67-9.93-14.67-5.547 0-9.84 5.71-9.84 13.882 0 10.534 3.31 15.752 9.75 15.752zm-9.214 24.464h-11.45V1.451H98.36l.09 5.907c2.773-4.922 6.888-7.186 12.255-7.186 11.093 0 19.054 9.648 19.054 25.99 0 14.67-6.71 25.007-18.07 25.007-5.457 0-9.75-2.461-13.06-7.58v21.116z"/>
        <path id="g" d="M39.934 16.484h-11.3c-.541-4.425-2.892-6.391-7.954-6.391-4.79 0-7.321 1.081-7.321 4.13 0 2.654 2.53 4.031 7.231 5.407 15.548 4.621 20.61 5.506 20.61 16.814 0 8.653-6.78 15.044-19.706 15.044C8.748 51.488.523 44.9.342 34.674h12.113c0 4.523 3.706 7.178 8.948 7.178 4.43 0 8.136-1.475 8.136-4.622 0-3.54-2.35-4.719-7.141-5.899-17.265-4.13-20.429-8.948-20.429-17.109C1.97 6.946 7.122.555 21.042.555c12.746 0 18.35 5.998 18.892 15.929zm44.079 33.833H72.299v-29.25c0-7.459-1.967-9.52-7.51-9.52-6.081 0-9.033 3.73-9.033 11.091v27.679H44.133V2.026H55.22v7.067C57.903 3.695 62.374.75 69.438.75c8.405 0 14.575 5.595 14.575 16.097v33.47zm43.204-.103h-10.864c-.36-1.175-.629-2.84-.718-4.31-2.784 3.33-7.452 5.584-13.379 5.584-10.055 0-14.724-5.387-14.724-13.223 0-13.91 8.53-15.476 20.291-17.24 5.836-.88 7.453-2.154 7.453-5.485 0-3.134-2.874-4.995-7.453-4.995-5.297 0-7.452 2.84-7.99 7.15H88.968C89.148 7.706 94.176.75 108.362.75c14.007 0 18.855 6.857 18.855 19.002v30.462zm-11.625-18.338l.091-5.367c-1.173 1.292-3.248 1.988-7.58 2.883-6.676 1.39-8.842 3.478-8.842 7.653 0 3.677 1.986 5.466 5.685 5.466 6.045 0 10.556-4.87 10.646-10.635zm27.853 32.891h-11.536V2.018h11.265l.09 5.855c2.794-4.878 6.94-7.123 12.347-7.123 11.176 0 19.197 9.562 19.197 25.759 0 14.538-6.76 24.784-18.206 24.784-5.497 0-9.823-2.44-13.157-7.513v20.987zm9.345-24.305c6.79 0 10.007-4.976 10.007-14.83 0-8.587-4.11-14.54-9.917-14.54-5.54 0-9.828 5.66-9.828 13.758 0 10.44 3.306 15.612 9.738 15.612z"/>
        <path id="i" d="M6.637 20.617L.352.509h12.496z"/>
        <path id="k" d="M17.44 19.498L.27 9.914 8.814.329z"/>
        <path id="m" d="M.036 13.825l18.775-6.67L.036.487v13.338z"/>
    </defs>
    <g fill="none" fill-rule="evenodd">
        <g transform="translate(125 95)">
            <mask id="b" fill="#fff">
                <use xlink:href="#a"/>
            </mask>
            <path fill="#EB8C2D" d="M.524 18h207.441V.302H.525z" mask="url(#b)"/>
        </g>
        <g transform="translate(333 95)">
            <mask id="d" fill="#fff">
                <use xlink:href="#c"/>
            </mask>
            <path fill="#535350" d="M.491 5.695h10.972V0H.49z" mask="url(#d)"/>
        </g>
        <g transform="translate(201 26)">
            <mask id="f" fill="#fff">
                <use xlink:href="#e"/>
            </mask>
            <path fill="#9C9D99" d="M.313 64.742H129.78V.164H.313z" mask="url(#f)"/>
        </g>
        <g transform="translate(22 26)">
            <mask id="h" fill="#fff">
                <use xlink:href="#g"/>
            </mask>
            <path fill="#535350" d="M.337 64.814h174.489V.534H.337z" mask="url(#h)"/>
        </g>
        <g transform="translate(35)">
            <mask id="j" fill="#fff">
                <use xlink:href="#i"/>
            </mask>
            <path fill="#EB8C2D" d="M.32 20.627h12.55V.467H.32z" mask="url(#j)"/>
        </g>
        <g transform="translate(8 9)">
            <mask id="l" fill="#fff">
                <use xlink:href="#k"/>
            </mask>
            <path fill="#B2D26D" d="M.22 19.553H17.5V.283H.22z" mask="url(#l)"/>
        </g>
        <g transform="translate(0 38)">
            <mask id="n" fill="#fff">
                <use xlink:href="#m"/>
            </mask>
            <path fill="#9BC3D7" d="M.036 13.86h18.81V.42H.036z" mask="url(#n)"/>
        </g>
    </g>
</svg>
